solid no_name
facet normal 0.000014890353781 0.999999999810718 -0.000012523668451
   outer loop
      vertex -0.076756227051577 -0.002937146558513 -0.345288757299155
      vertex 0.061726974577026 -0.002939245275756 -0.348215485844099
      vertex -0.057199631977282 -0.002937484721337 -0.349038313983044
   endloop
endfacet
facet normal -0.000015140377840 -0.999999999870242 0.000005503149754
   outer loop
      vertex -0.186929726515346 0.997064557804538 -0.300537589530736
      vertex -0.169709003664476 0.997064242054089 -0.310535899825170
      vertex 0.173723157353064 0.997059055438039 -0.308159691338275
   endloop
endfacet
facet normal 0.000020570015838 0.999999999788313 0.000000497575347
   outer loop
      vertex -0.357730047783487 -0.002932930807705 0.371883753410420
      vertex -0.309666564512067 -0.002933648593975 -0.172516895549687
      vertex -0.318928385219747 -0.002933466849345 -0.154889077208704
   endloop
endfacet
facet normal 0.000015213020753 0.999999999868598 -0.000005600708486
   outer loop
      vertex -0.096071872628507 -0.002936825600275 -0.340448490970391
      vertex 0.081229866698528 -0.002939543881764 -0.344195597057345
      vertex -0.076756227051577 -0.002937146558513 -0.345288757299155
   endloop
endfacet
facet normal -0.000018451333762 -0.999999999829607 -0.000000577634124
   outer loop
      vertex -0.357714849816624 0.997067011475798 0.371883956933887
      vertex -0.299415727369632 0.997066260110102 -0.189597536612190
      vertex -0.288238446860723 0.997066063393773 -0.206077524906012
   endloop
endfacet
facet normal -0.835295101383534 0.000012643010933 0.549801867443923
   outer loop
      vertex 0.290795912072784 0.997057212586310 -0.202071155553148
      vertex 0.290780694126641 -0.002942730930724 -0.202071280081002
      vertex 0.301744011953011 0.997057083416542 -0.185438083272837
   endloop
endfacet
facet normal 0.794830971053283 -0.000012152602898 0.606830888556943
   outer loop
      vertex -0.288238446860723 0.997066063393773 -0.206077524906012
      vertex -0.288253642815255 -0.002933979730456 -0.206077647490619
      vertex -0.276154724971389 0.997065854098447 -0.221904860967662
   endloop
endfacet
facet normal -0.915587658759771 0.000013881438611 0.402118438938216
   outer loop
      vertex 0.320759440732775 0.997056799128372 -0.150463018195530
      vertex 0.320744224781800 -0.002943244373743 -0.150463142780003
      vertex 0.328751540308004 -0.002943333939182 -0.132231202717296
   endloop
endfacet
facet normal -0.915589461827041 0.000013792178622 0.402114333493653
   outer loop
      vertex 0.320759440732775 0.997056799128372 -0.150463018195530
      vertex 0.328751540308004 -0.002943333939182 -0.132231202717296
      vertex 0.328766658273839 0.997056607593349 -0.132231079189276
   endloop
endfacet
facet normal 0.000015293283891 0.999999999883012 0.000000304217718
   outer loop
      vertex 0.352246085282650 -0.002943790472947 0.377796232868731
      vertex 0.354833688457565 -0.002943716271170 0.003805109988612
      vertex -0.357730047783487 -0.002932930807705 0.371883753410420
   endloop
endfacet
facet normal 0.681953483660887 -0.000010447236347 0.731395546892129
   outer loop
      vertex -0.234858540928788 0.997065255794997 -0.264984262077926
      vertex -0.249422698276483 0.997065429962633 -0.251404636273710
      vertex -0.234873726885735 -0.002934787108597 -0.264984386662432
   endloop
endfacet
facet normal -0.310263217836255 0.000004623147878 0.950650690651682
   outer loop
      vertex 0.119406790043617 -0.002940166811052 -0.332910362974924
      vertex 0.100491826894716 0.997060105117514 -0.339088489745065
      vertex 0.100476608953022 -0.002939838621355 -0.339088593274091
   endloop
endfacet
facet normal 0.909935450071795 -0.000013876789842 0.414749896335218
   outer loop
      vertex -0.318913196261279 0.997066576008467 -0.154888942624760
      vertex -0.327187235064387 -0.002933370193926 -0.136769674845489
      vertex -0.318928385219747 -0.002933466849345 -0.154889077208704
   endloop
endfacet
facet normal -0.000015435382131 -0.999999999880650 -0.000000670194085
   outer loop
      vertex 0.156095434823725 0.997059247776335 -0.317421571171312
      vertex -0.151954675082452 0.997064004075947 -0.319552967592181
      vertex 0.137976013676944 0.997059532991536 -0.325680389849198
   endloop
endfacet
facet normal -0.514022334620965 0.000007680232957 0.857776800485899
   outer loop
      vertex 0.190788756123435 -0.002941179259705 -0.297924185841464
      vertex 0.173723157353064 0.997059055438039 -0.308159691338275
      vertex 0.173708041386423 -0.002940986280277 -0.308159795923973
   endloop
endfacet
facet normal -0.561309261195212 0.000008423193189 0.827606134115459
   outer loop
      vertex 0.207268754989163 -0.002941505507703 -0.286746917320545
      vertex 0.190803974073603 0.997058764056623 -0.297924042314671
      vertex 0.190788756123435 -0.002941179259705 -0.297924185841464
   endloop
endfacet
facet normal -0.000015317363494 -0.999999999881110 -0.000001777003377
   outer loop
      vertex -0.115070438200106 0.997063398867476 -0.334532725472421
      vertex -0.096056654686814 0.997063118138594 -0.340448387441365
      vertex 0.100491826894716 0.997060105117514 -0.339088489745065
   endloop
endfacet
facet normal 0.931759126001330 -0.000014202884770 0.363077031649643
   outer loop
      vertex -0.327172040113878 0.997066572874806 -0.136769551317554
      vertex -0.334417129347517 -0.002933237788594 -0.118215705872007
      vertex -0.327187235064387 -0.002933370193926 -0.136769674845489
   endloop
endfacet
facet normal -0.000014757288951 -0.999999999890984 0.000000503910781
   outer loop
      vertex -0.357714849816624 0.997067011475798 0.371883956933887
      vertex 0.335739167993337 0.997056533344546 -0.113578836240817
      vertex 0.341654867836944 0.997056455626137 -0.094564989219083
   endloop
endfacet
facet normal -0.000015873854696 -0.999999999868232 -0.000003399573840
   outer loop
      vertex -0.057184416030544 0.997062558992048 -0.349038209397455
      vertex -0.037448284688442 0.997062254702690 -0.351685342230280
      vertex 0.042044562966168 0.997060990975100 -0.351135368509363
   endloop
endfacet
facet normal -0.000014184721938 -0.999999999898523 0.000001321787870
   outer loop
      vertex -0.357714849816624 0.997067011475798 0.371883956933887
      vertex 0.328766658273839 0.997056607593349 -0.132231079189276
      vertex 0.335739167993337 0.997056533344546 -0.113578836240817
   endloop
endfacet
facet normal -0.000013932102008 -0.999999999901891 0.000001454539676
   outer loop
      vertex -0.357714849816624 0.997067011475798 0.371883956933887
      vertex 0.311742424560947 0.997056898930043 -0.168217307544617
      vertex 0.320759440732775 0.997056799128372 -0.150463018195530
   endloop
endfacet
facet normal -0.000015213020763 -0.999999999868598 0.000005600708257
   outer loop
      vertex -0.096056654686814 0.997063118138594 -0.340448387441365
      vertex -0.076741009109883 0.997062797180357 -0.345288653770129
      vertex 0.081245084640221 0.997060399857104 -0.344195493528320
   endloop
endfacet
facet normal 0.857776919858015 -0.000013103919813 0.514022135308572
   outer loop
      vertex -0.309651368554992 0.997066394403490 -0.172516760965750
      vertex -0.309666564512067 -0.002933648593975 -0.172516895549687
      vertex -0.299415727369632 0.997066260110102 -0.189597536612190
   endloop
endfacet
facet normal -0.864805246614060 0.000013007306057 0.502107443939646
   outer loop
      vertex 0.301744011953011 0.997057083416542 -0.185438083272837
      vertex 0.301728895981073 -0.002942958037687 -0.185438212857141
      vertex 0.311742424560947 0.997056898930043 -0.168217307544617
   endloop
endfacet
facet normal -0.997019292855818 0.000015062840680 0.077152637326248
   outer loop
      vertex 0.352891771942641 0.997056292106432 -0.035956590523483
      vertex 0.354412983853019 -0.002943765142146 -0.016103212624891
      vertex 0.354428099819659 0.997056276576170 -0.016103108039192
   endloop
endfacet
facet normal -0.000024051080993 -0.999999999710638 -0.000000519077265
   outer loop
      vertex -0.357714849816624 0.997067011475798 0.371883956933887
      vertex -0.340580125066576 0.997066843940454 -0.099285415149944
      vertex -0.334401934394889 0.997066705174504 -0.118215572344630
   endloop
endfacet
facet normal 0.794830950844788 -0.000012151939463 0.606830915026171
   outer loop
      vertex -0.276154724971389 0.997065854098447 -0.221904860967662
      vertex -0.288253642815255 -0.002933979730456 -0.206077647490619
      vertex -0.276169910930454 -0.002934188699511 -0.221904995551610
   endloop
endfacet
facet normal -0.000016172937485 -0.999999999868343 -0.000001322983189
   outer loop
      vertex -0.357714849816624 0.997067011475798 0.371883956933887
      vertex 0.301744011953011 0.997057083416542 -0.185438083272837
      vertex 0.311742424560947 0.997056898930043 -0.168217307544617
   endloop
endfacet
facet normal -0.000013890867873 -0.999999999902574 0.000001377306626
   outer loop
      vertex -0.357714849816624 0.997067011475798 0.371883956933887
      vertex 0.290795912072784 0.997057212586310 -0.202071155553148
      vertex 0.301744011953011 0.997057083416542 -0.185438083272837
   endloop
endfacet
facet normal 0.857776605570177 -0.000013091739827 0.514022659777865
   outer loop
      vertex -0.299415727369632 0.997066260110102 -0.189597536612190
      vertex -0.309666564512067 -0.002933648593975 -0.172516895549687
      vertex -0.299430913327214 -0.002933782761800 -0.189597664196528
   endloop
endfacet
facet normal -0.000015913886366 -0.999999999872962 -0.000000908498024
   outer loop
      vertex -0.357714849816624 0.997067011475798 0.371883956933887
      vertex 0.278932329202463 0.997057415911662 -0.218064192344305
      vertex 0.290795912072784 0.997057212586310 -0.202071155553148
   endloop
endfacet
facet normal 0.000018166122983 0.999999999834928 0.000000368872673
   outer loop
      vertex -0.357730047783487 -0.002932930807705 0.371883753410420
      vertex -0.288253642815255 -0.002933979730456 -0.206077647490619
      vertex -0.299430913327214 -0.002933782761800 -0.189597664196528
   endloop
endfacet
facet normal -0.000015318080328 -0.999999999878458 -0.000002905149729
   outer loop
      vertex 0.190803974073603 0.997058764056623 -0.297924042314671
      vertex -0.186929726515346 0.997064557804538 -0.300537589530736
      vertex 0.173723157353064 0.997059055438039 -0.308159691338275
   endloop
endfacet
facet normal -0.000020975094181 -0.999999999779765 -0.000000718338028
   outer loop
      vertex -0.357714849816624 0.997067011475798 0.371883956933887
      vertex -0.318913196261279 0.997066576008467 -0.154888942624760
      vertex -0.309651368554992 0.997066394403490 -0.172516760965750
   endloop
endfacet
facet normal -0.606830326420567 0.000009126529865 0.794831400268645
   outer loop
      vertex 0.223096122898309 -0.002941728753150 -0.274663188829854
      vertex 0.207283970942256 0.997058537888776 -0.286746782736631
      vertex 0.207268754989163 -0.002941505507703 -0.286746917320545
   endloop
endfacet
facet normal 0.595775587271394 -0.000009173384191 0.803150950648304
   outer loop
      vertex -0.203562829116940 0.997064760766226 -0.289589451920457
      vertex -0.219555805268080 0.997065062040638 -0.277725897810566
      vertex -0.203578045070033 -0.002935282630255 -0.289589586504371
   endloop
endfacet
facet normal -0.936693242840714 0.000014115403772 0.350151065423630
   outer loop
      vertex 0.328766658273839 0.997056607593349 -0.132231079189276
      vertex 0.335724052022457 -0.002943508162499 -0.113578960825399
      vertex 0.335739167993337 0.997056533344546 -0.113578836240817
   endloop
endfacet
facet normal -0.090940980524372 0.000001280834581 0.995856283837997
   outer loop
      vertex 0.042029445004571 -0.002938950768701 -0.351135472038499
      vertex 0.022214307516400 0.997061319426740 -0.352946264315047
      vertex 0.022199089574706 -0.002938624312130 -0.352946367844073
   endloop
endfacet
facet normal 0.000015317363494 0.999999999881110 0.000001777003387
   outer loop
      vertex -0.115085656141800 -0.002936544871393 -0.334532829001447
      vertex 0.100476608953022 -0.002939838621355 -0.339088593274091
      vertex -0.096071872628507 -0.002936825600275 -0.340448490970391
   endloop
endfacet
facet normal 0.000010633426931 0.999999999943450 -0.000000173771226
   outer loop
      vertex -0.357730047783487 -0.002932930807705 0.371883753410420
      vertex -0.345702365617506 -0.002933137234307 -0.080038722639792
      vertex -0.349722205225869 -0.002933091100604 -0.060535881787638
   endloop
endfacet
facet normal -0.034963344447391 0.000000427478724 0.999388595364621
   outer loop
      vertex 0.022199089574706 -0.002938624312130 -0.352946367844073
      vertex 0.002313638915504 0.997061665900882 -0.353642482791715
      vertex 0.002298422968767 -0.002938377812503 -0.353642587377304
   endloop
endfacet
facet normal -0.146638039306178 0.000002129119353 0.989190217007784
   outer loop
      vertex 0.061742192518719 0.997060698463111 -0.348215382315074
      vertex 0.042044562966168 0.997060990975100 -0.351135368509363
      vertex 0.061726974577026 -0.002939245275756 -0.348215485844099
   endloop
endfacet
facet normal -0.000015158230077 -0.999999999852444 0.000008083324201
   outer loop
      vertex 0.173723157353064 0.997059055438039 -0.308159691338275
      vertex -0.169709003664476 0.997064242054089 -0.310535899825170
      vertex 0.156095434823725 0.997059247776335 -0.317421571171312
   endloop
endfacet
facet normal -0.000015161130149 -0.999999999882824 0.000002119261013
   outer loop
      vertex 0.207283970942256 0.997058537888776 -0.286746782736631
      vertex -0.203562829116940 0.997064760766226 -0.289589451920457
      vertex 0.190803974073603 0.997058764056623 -0.297924042314671
   endloop
endfacet
facet normal 0.000015148462369 0.999999999877581 -0.000003919392673
   outer loop
      vertex -0.249437906226523 -0.002934513259823 -0.251404769801072
      vertex 0.238221051729899 -0.002941940937451 -0.261711022909176
      vertex -0.234873726885735 -0.002934787108597 -0.264984386662432
   endloop
endfacet
facet normal -0.000015221325611 -0.999999999879429 -0.000003074453304
   outer loop
      vertex -0.234858540928788 0.997065255794997 -0.264984262077926
      vertex -0.219555805268080 0.997065062040638 -0.277725897810566
      vertex 0.223111338851403 0.997058314643330 -0.274663054245939
   endloop
endfacet
facet normal 0.000011578870093 0.999999999932954 -0.000000148608747
   outer loop
      vertex -0.357730047783487 -0.002932930807705 0.371883753410420
      vertex -0.340595319019811 -0.002933199228380 -0.099285529734999
      vertex -0.345702365617506 -0.002933137234307 -0.080038722639792
   endloop
endfacet
facet normal -0.991125213025635 0.000015053733661 0.132931606017063
   outer loop
      vertex 0.350244723086139 0.997056309449660 -0.055692731089738
      vertex 0.352876555974715 -0.002943750550603 -0.035956795103491
      vertex 0.352891771942641 0.997056292106432 -0.035956590523483
   endloop
endfacet
facet normal 0.000083782774701 0.999999996490097 0.000000502299921
   outer loop
      vertex -0.357730047783487 -0.002932930807705 0.371883753410420
      vertex -0.354453115126447 -0.002933008008733 -0.021007972121103
      vertex -0.355149302819943 -0.002932959676296 -0.001107313284321
   endloop
endfacet
facet normal -0.000015169522938 -0.999999999884708 -0.000000685699963
   outer loop
      vertex 0.081245084640221 0.997060399857104 -0.344195493528320
      vertex -0.076741009109883 0.997062797180357 -0.345288653770129
      vertex 0.061742192518719 0.997060698463111 -0.348215382315074
   endloop
endfacet
facet normal -0.000015523664428 -0.999999999727387 -0.000017442514622
   outer loop
      vertex -0.076741009109883 0.997062797180357 -0.345288653770129
      vertex -0.057184416030544 0.997062558992048 -0.349038209397455
      vertex 0.061742192518719 0.997060698463111 -0.348215382315074
   endloop
endfacet
facet normal -0.000015683229205 -0.999999999861226 0.000005620043585
   outer loop
      vertex 0.061742192518719 0.997060698463111 -0.348215382315074
      vertex -0.057184416030544 0.997062558992048 -0.349038209397455
      vertex 0.042044562966168 0.997060990975100 -0.351135368509363
   endloop
endfacet
facet normal -0.000015842799336 -0.999999999843390 -0.000007888295592
   outer loop
      vertex 0.042044562966168 0.997060990975100 -0.351135368509363
      vertex -0.037448284688442 0.997062254702690 -0.351685342230280
      vertex 0.022214307516400 0.997061319426740 -0.352946264315047
   endloop
endfacet
facet normal -0.000015900664302 -0.999999999817126 -0.000010626271198
   outer loop
      vertex -0.037448284688442 0.997062254702690 -0.351685342230280
      vertex -0.017594828874321 0.997061955345710 -0.353221737871758
      vertex 0.022214307516400 0.997061319426740 -0.352946264315047
   endloop
endfacet
facet normal -0.000015620131480 -0.999999998568999 -0.000051166527419
   outer loop
      vertex 0.022214307516400 0.997061319426740 -0.352946264315047
      vertex -0.017594828874321 0.997061955345710 -0.353221737871758
      vertex 0.002313638915504 0.997061665900882 -0.353642482791715
   endloop
endfacet
facet normal -0.731398757153647 0.000011046147501 0.681950040627672
   outer loop
      vertex 0.252611150292561 0.997057782255463 -0.247931048420421
      vertex 0.252595932346629 -0.002942161272136 -0.247931171948331
      vertex 0.266190672548432 0.997057607910571 -0.233366864666625
   endloop
endfacet
facet normal -0.090941435243739 0.000001271749064 0.995856242313212
   outer loop
      vertex 0.042044562966168 0.997060990975100 -0.351135368509363
      vertex 0.022214307516400 0.997061319426740 -0.352946264315047
      vertex 0.042029445004571 -0.002938950768701 -0.351135472038499
   endloop
endfacet
facet normal -0.768482278126912 0.000011609283753 0.639871071443378
   outer loop
      vertex 0.266190672548432 0.997057607910571 -0.233366864666625
      vertex 0.266175454600383 -0.002942335511393 -0.233366998193976
      vertex 0.278932329202463 0.997057415911662 -0.218064192344305
   endloop
endfacet
facet normal -0.000015291571574 -0.999999999862615 -0.000006398270441
   outer loop
      vertex 0.238236169697853 0.997058000489443 -0.261710889381715
      vertex -0.234858540928788 0.997065255794997 -0.264984262077926
      vertex 0.223111338851403 0.997058314643330 -0.274663054245939
   endloop
endfacet
facet normal 0.759555378223425 -0.000011622115522 0.650442639497747
   outer loop
      vertex -0.276154724971389 0.997065854098447 -0.221904860967662
      vertex -0.276169910930454 -0.002934188699511 -0.221904995551610
      vertex -0.263202559530730 0.997065648305014 -0.237029771797740
   endloop
endfacet
facet normal -0.768479943737583 0.000011536601552 0.639873875025374
   outer loop
      vertex 0.278932329202463 0.997057415911662 -0.218064192344305
      vertex 0.266175454600383 -0.002942335511393 -0.233366998193976
      vertex 0.278917213231585 -0.002942625595383 -0.218064316928887
   endloop
endfacet
facet normal -0.310263295359528 0.000004621525215 0.950650665350468
   outer loop
      vertex 0.119422005990353 0.997059876902332 -0.332910258389335
      vertex 0.100491826894716 0.997060105117514 -0.339088489745065
      vertex 0.119406790043617 -0.002940166811052 -0.332910362974924
   endloop
endfacet
facet normal -0.514021515314454 0.000007699240218 0.857777291454229
   outer loop
      vertex 0.190803974073603 0.997058764056623 -0.297924042314671
      vertex 0.173723157353064 0.997059055438039 -0.308159691338275
      vertex 0.190788756123435 -0.002941179259705 -0.297924185841464
   endloop
endfacet
facet normal 0.008327288666435 -0.000000021292944 -0.999965327530643
   outer loop
      vertex 0.352261201249291 0.997056251245368 0.377796337454430
      vertex 0.352246085282650 -0.002943790472947 0.377796232868731
      vertex -0.357714849816624 0.997067011475798 0.371883956933887
   endloop
endfacet
facet normal -0.803151340280149 0.000012066187383 0.595775061966014
   outer loop
      vertex 0.278932329202463 0.997057415911662 -0.218064192344305
      vertex 0.278917213231585 -0.002942625595383 -0.218064316928887
      vertex 0.290795912072784 0.997057212586310 -0.202071155553148
   endloop
endfacet
facet normal 0.639868886738061 -0.000009831954369 0.768484097225133
   outer loop
      vertex -0.219555805268080 0.997065062040638 -0.277725897810566
      vertex -0.234858540928788 0.997065255794997 -0.264984262077926
      vertex -0.219571021219053 -0.002934981461477 -0.277726022395039
   endloop
endfacet
facet normal -0.954852776593076 0.000014500886735 0.297079408277008
   outer loop
      vertex 0.335739167993337 0.997056533344546 -0.113578836240817
      vertex 0.341639651892326 -0.002943588192883 -0.094565083805230
      vertex 0.341654867836944 0.997056455626137 -0.094564989219083
   endloop
endfacet
facet normal -0.864807420435550 0.000013093550561 0.502103699835172
   outer loop
      vertex 0.311742424560947 0.997056898930043 -0.168217307544617
      vertex 0.301728895981073 -0.002942958037687 -0.185438212857141
      vertex 0.311727206612896 -0.002943044491922 -0.168217441071969
   endloop
endfacet
facet normal 0.000015987438062 0.999999999872198 0.000000077545811
   outer loop
      vertex -0.357730047783487 -0.002932930807705 0.371883753410420
      vertex -0.263217745487676 -0.002934394598582 -0.237029896382246
      vertex -0.276169910930454 -0.002934188699511 -0.221904995551610
   endloop
endfacet
facet normal -0.891599864704741 0.000013510124389 0.452824117153629
   outer loop
      vertex 0.311742424560947 0.997056898930043 -0.168217307544617
      vertex 0.320744224781800 -0.002943244373743 -0.150463142780003
      vertex 0.320759440732775 0.997056799128372 -0.150463018195530
   endloop
endfacet
facet normal -0.999976065230592 0.000015116327813 -0.006918723685689
   outer loop
      vertex 0.352261201249291 0.997056251245368 0.377796337454430
      vertex 0.354833688457565 -0.002943716271170 0.003805109988612
      vertex 0.352246085282650 -0.002943790472947 0.377796232868731
   endloop
endfacet
facet normal -0.936693203451624 0.000014117643192 0.350151170793739
   outer loop
      vertex 0.328766658273839 0.997056607593349 -0.132231079189276
      vertex 0.328751540308004 -0.002943333939182 -0.132231202717296
      vertex 0.335724052022457 -0.002943508162499 -0.113578960825399
   endloop
endfacet
facet normal -0.954854333706088 0.000014396538814 0.297074403467284
   outer loop
      vertex 0.335739167993337 0.997056533344546 -0.113578836240817
      vertex 0.335724052022457 -0.002943508162499 -0.113578960825399
      vertex 0.341639651892326 -0.002943588192883 -0.094565083805230
   endloop
endfacet
facet normal -0.991125124429335 0.000015067003645 0.132932266579343
   outer loop
      vertex 0.350244723086139 0.997056309449660 -0.055692731089738
      vertex 0.350229507139402 -0.002943734263724 -0.055692835675326
      vertex 0.352876555974715 -0.002943750550603 -0.035956795103491
   endloop
endfacet
facet normal -0.997018936435142 0.000015154822682 0.077157243082362
   outer loop
      vertex 0.352891771942641 0.997056292106432 -0.035956590523483
      vertex 0.352876555974715 -0.002943750550603 -0.035956795103491
      vertex 0.354412983853019 -0.002943765142146 -0.016103212624891
   endloop
endfacet
facet normal -0.999776791879839 0.000015110382381 0.021127380105749
   outer loop
      vertex 0.354428099819659 0.997056276576170 -0.016103108039192
      vertex 0.354412983853019 -0.002943765142146 -0.016103212624891
      vertex 0.354833688457565 -0.002943716271170 0.003805109988612
   endloop
endfacet
facet normal 0.885248568930698 -0.000013508600615 0.465118233381222
   outer loop
      vertex -0.318913196261279 0.997066576008467 -0.154888942624760
      vertex -0.318928385219747 -0.002933466849345 -0.154889077208704
      vertex -0.309651368554992 0.997066394403490 -0.172516760965750
   endloop
endfacet
facet normal 0.885248713643223 -0.000013514798278 0.465117957953001
   outer loop
      vertex -0.309651368554992 0.997066394403490 -0.172516760965750
      vertex -0.318928385219747 -0.002933466849345 -0.154889077208704
      vertex -0.309666564512067 -0.002933648593975 -0.172516895549687
   endloop
endfacet
facet normal 0.759555165719006 -0.000011615606652 0.650442887650139
   outer loop
      vertex -0.263202559530730 0.997065648305014 -0.237029771797740
      vertex -0.276169910930454 -0.002934188699511 -0.221904995551610
      vertex -0.263217745487676 -0.002934394598582 -0.237029896382246
   endloop
endfacet
facet normal -0.891599916270809 0.000013507857580 0.452824015621327
   outer loop
      vertex 0.311742424560947 0.997056898930043 -0.168217307544617
      vertex 0.311727206612896 -0.002943044491922 -0.168217441071969
      vertex 0.320744224781800 -0.002943244373743 -0.150463142780003
   endloop
endfacet
facet normal 0.000005059571633 0.999999999987126 -0.000000385692137
   outer loop
      vertex -0.357730047783487 -0.002932930807705 0.371883753410420
      vertex -0.334417129347517 -0.002933237788594 -0.118215705872007
      vertex -0.340595319019811 -0.002933199228380 -0.099285529734999
   endloop
endfacet
facet normal -0.731398523673339 0.000011039326345 0.681950291037839
   outer loop
      vertex 0.266190672548432 0.997057607910571 -0.233366864666625
      vertex 0.252595932346629 -0.002942161272136 -0.247931171948331
      vertex 0.266175454600383 -0.002942335511393 -0.233366998193976
   endloop
endfacet
facet normal -0.000015064561635 -0.999999999865346 0.000006509059915
   outer loop
      vertex -0.133722749518931 0.997063725240431 -0.327560280625804
      vertex -0.115070438200106 0.997063398867476 -0.334532725472421
      vertex 0.119422005990353 0.997059876902332 -0.332910258389335
   endloop
endfacet
facet normal 0.000015404912009 0.999999999863824 0.000005919482024
   outer loop
      vertex 0.119406790043617 -0.002940166811052 -0.332910362974924
      vertex 0.100476608953022 -0.002939838621355 -0.339088593274091
      vertex -0.115085656141800 -0.002936544871393 -0.334532829001447
   endloop
endfacet
facet normal 0.979411929503843 -0.000014903228450 0.201871920096514
   outer loop
      vertex -0.349707010274952 0.997066952193815 -0.060535777202025
      vertex -0.349722205225869 -0.002933091100604 -0.060535881787638
      vertex -0.345687173665992 0.997066906000261 -0.080038618054176
   endloop
endfacet
facet normal 0.502102573927857 -0.000007816898769 0.864808074195609
   outer loop
      vertex -0.169724119652305 -0.002935798607876 -0.310536104405289
      vertex -0.186929726515346 0.997064557804538 -0.300537589530736
      vertex -0.186944942483271 -0.002935484852496 -0.300537794110743
   endloop
endfacet
facet normal 0.502104754107836 -0.000007766731316 0.864806808392480
   outer loop
      vertex -0.169709003664476 0.997064242054089 -0.310535899825170
      vertex -0.186929726515346 0.997064557804538 -0.300537589530736
      vertex -0.169724119652305 -0.002935798607876 -0.310536104405289
   endloop
endfacet
facet normal 0.999976064096607 -0.000015199012119 0.006918887399608
   outer loop
      vertex -0.357714849816624 0.997067011475798 0.371883956933887
      vertex -0.357730047783487 -0.002932930807705 0.371883753410420
      vertex -0.355134104853080 0.997066982607207 -0.001107109760855
   endloop
endfacet
facet normal -0.982110749779498 0.000014924050300 0.188304208515965
   outer loop
      vertex 0.346495054842657 0.997056333028838 -0.075249327935898
      vertex 0.350229507139402 -0.002943734263724 -0.055692835675326
      vertex 0.350244723086139 0.997056309449660 -0.055692731089738
   endloop
endfacet
facet normal 0.979411899722593 -0.000014900290363 0.201872064584883
   outer loop
      vertex -0.345687173665992 0.997066906000261 -0.080038618054176
      vertex -0.349722205225869 -0.002933091100604 -0.060535881787638
      vertex -0.345702365617506 -0.002933137234307 -0.080038722639792
   endloop
endfacet
facet normal 0.989190321742774 -0.000015046033890 0.146637332027163
   outer loop
      vertex -0.349707010274952 0.997066952193815 -0.060535777202025
      vertex -0.352642175388252 -0.002933061007401 -0.040838263282652
      vertex -0.349722205225869 -0.002933091100604 -0.060535881787638
   endloop
endfacet
facet normal -0.201873924506355 0.000002970708260 0.979411516470772
   outer loop
      vertex 0.081245084640221 0.997060399857104 -0.344195493528320
      vertex 0.061742192518719 0.997060698463111 -0.348215382315074
      vertex 0.081229866698528 -0.002939543881764 -0.344195597057345
   endloop
endfacet
facet normal 0.132935809684502 -0.000002126401463 0.991124649324697
   outer loop
      vertex -0.037448284688442 0.997062254702690 -0.351685342230280
      vertex -0.057184416030544 0.997062558992048 -0.349038209397455
      vertex -0.037463500635178 -0.002937789010695 -0.351685446815869
   endloop
endfacet
facet normal 0.243072275837597 -0.000003799483937 0.970008179710200
   outer loop
      vertex -0.076741009109883 0.997062797180357 -0.345288653770129
      vertex -0.096056654686814 0.997063118138594 -0.340448387441365
      vertex -0.076756227051577 -0.002937146558513 -0.345288757299155
   endloop
endfacet
facet normal 0.000015169522924 0.999999999884708 0.000000685700274
   outer loop
      vertex 0.081229866698528 -0.002939543881764 -0.344195597057345
      vertex 0.061726974577026 -0.002939245275756 -0.348215485844099
      vertex -0.076756227051577 -0.002937146558513 -0.345288757299155
   endloop
endfacet
facet normal 0.297078578734969 -0.000004619779754 0.954853034783609
   outer loop
      vertex -0.096071872628507 -0.002936825600275 -0.340448490970391
      vertex -0.115070438200106 0.997063398867476 -0.334532725472421
      vertex -0.115085656141800 -0.002936544871393 -0.334532829001447
   endloop
endfacet
facet normal 0.000002615819481 -0.999999999996059 0.000001019349047
   outer loop
      vertex -0.357714849816624 0.997067011475798 0.371883956933887
      vertex -0.327172040113878 0.997066572874806 -0.136769551317554
      vertex -0.318913196261279 0.997066576008467 -0.154888942624760
   endloop
endfacet
facet normal 0.350147067121209 -0.000005425783657 0.936694737551662
   outer loop
      vertex -0.115085656141800 -0.002936544871393 -0.334532829001447
      vertex -0.133722749518931 0.997063725240431 -0.327560280625804
      vertex -0.133737965465667 -0.002936318472954 -0.327560385211393
   endloop
endfacet
facet normal -0.000015330084600 -0.999999999882493 0.000000061601163
   outer loop
      vertex 0.100491826894716 0.997060105117514 -0.339088489745065
      vertex -0.096056654686814 0.997063118138594 -0.340448387441365
      vertex 0.081245084640221 0.997060399857104 -0.344195493528320
   endloop
endfacet
facet normal 0.350147080791223 -0.000005425493258 0.936694732441658
   outer loop
      vertex -0.115070438200106 0.997063398867476 -0.334532725472421
      vertex -0.133722749518931 0.997063725240431 -0.327560280625804
      vertex -0.115085656141800 -0.002936544871393 -0.334532829001447
   endloop
endfacet
facet normal 0.402118601978562 -0.000006214372226 0.915587587237938
   outer loop
      vertex -0.133737965465667 -0.002936318472954 -0.327560385211393
      vertex -0.151954675082452 0.997064004075947 -0.319552967592181
      vertex -0.151969891029189 -0.002936039637438 -0.319553072177770
   endloop
endfacet
facet normal 0.402118601978623 -0.000006214372225 0.915587587237911
   outer loop
      vertex -0.133722749518931 0.997063725240431 -0.327560280625804
      vertex -0.151954675082452 0.997064004075947 -0.319552967592181
      vertex -0.133737965465667 -0.002936318472954 -0.327560385211393
   endloop
endfacet
facet normal -0.201873924506356 0.000002970708260 0.979411516470772
   outer loop
      vertex 0.081229866698528 -0.002939543881764 -0.344195597057345
      vertex 0.061742192518719 0.997060698463111 -0.348215382315074
      vertex 0.061726974577026 -0.002939245275756 -0.348215485844099
   endloop
endfacet
facet normal 0.452825381343623 -0.000006983415009 0.891599222724108
   outer loop
      vertex -0.151954675082452 0.997064004075947 -0.319552967592181
      vertex -0.169709003664476 0.997064242054089 -0.310535899825170
      vertex -0.151969891029189 -0.002936039637438 -0.319553072177770
   endloop
endfacet
facet normal -0.000019016498409 -0.999999999819147 -0.000000279593668
   outer loop
      vertex -0.357714849816624 0.997067011475798 0.371883956933887
      vertex -0.334401934394889 0.997066705174504 -0.118215572344630
      vertex -0.327172040113878 0.997066572874806 -0.136769551317554
   endloop
endfacet
facet normal -0.000015203196721 -0.999999999882002 0.000002204535229
   outer loop
      vertex 0.266190672548432 0.997057607910571 -0.233366864666625
      vertex -0.263202559530730 0.997065648305014 -0.237029771797740
      vertex 0.252611150292561 0.997057782255463 -0.247931048420421
   endloop
endfacet
facet normal 0.950651268352303 -0.000014486530212 0.310261447444407
   outer loop
      vertex -0.334401934394889 0.997066705174504 -0.118215572344630
      vertex -0.340595319019811 -0.002933199228380 -0.099285529734999
      vertex -0.334417129347517 -0.002933237788594 -0.118215705872007
   endloop
endfacet
facet normal 0.639869627410609 -0.000009812773327 0.768483480512833
   outer loop
      vertex -0.219571021219053 -0.002934981461477 -0.277726022395039
      vertex -0.234858540928788 0.997065255794997 -0.264984262077926
      vertex -0.234873726885735 -0.002934787108597 -0.264984386662432
   endloop
endfacet
facet normal -0.000015202326138 -0.999999999884438 0.000000111347310
   outer loop
      vertex 0.278932329202463 0.997057415911662 -0.218064192344305
      vertex -0.276154724971389 0.997065854098447 -0.221904860967662
      vertex 0.266190672548432 0.997057607910571 -0.233366864666625
   endloop
endfacet
facet normal -0.256468724002482 0.000003802860060 0.966552530178302
   outer loop
      vertex 0.100491826894716 0.997060105117514 -0.339088489745065
      vertex 0.081245084640221 0.997060399857104 -0.344195493528320
      vertex 0.100476608953022 -0.002939838621355 -0.339088593274091
   endloop
endfacet
facet normal -0.000017292828199 -0.999999999846243 -0.000002910693451
   outer loop
      vertex -0.357714849816624 0.997067011475798 0.371883956933887
      vertex 0.320759440732775 0.997056799128372 -0.150463018195530
      vertex 0.328766658273839 0.997056607593349 -0.132231079189276
   endloop
endfacet
facet normal -0.803153791748989 0.000012148161655 0.595771757178572
   outer loop
      vertex 0.290795912072784 0.997057212586310 -0.202071155553148
      vertex 0.278917213231585 -0.002942625595383 -0.218064316928887
      vertex 0.290780694126641 -0.002942730930724 -0.202071280081002
   endloop
endfacet
facet normal -0.999776683668884 0.000015212356307 0.021132500103683
   outer loop
      vertex 0.354428099819659 0.997056276576170 -0.016103108039192
      vertex 0.354833688457565 -0.002943716271170 0.003805109988612
      vertex 0.354848906399258 0.997056227467699 0.003805213517637
   endloop
endfacet
facet normal -0.000016559083132 -0.999999999860484 -0.000002197607354
   outer loop
      vertex -0.357714849816624 0.997067011475798 0.371883956933887
      vertex 0.341654867836944 0.997056455626137 -0.094564989219083
      vertex 0.346495054842657 0.997056333028838 -0.075249327935898
   endloop
endfacet
facet normal -0.000014200498299 -0.999999999898022 0.000001517031785
   outer loop
      vertex -0.357714849816624 0.997067011475798 0.371883956933887
      vertex 0.346495054842657 0.997056333028838 -0.075249327935898
      vertex 0.350244723086139 0.997056309449660 -0.055692731089738
   endloop
endfacet
facet normal -0.465122265819426 0.000006938188247 0.885246450312491
   outer loop
      vertex 0.173723157353064 0.997059055438039 -0.308159691338275
      vertex 0.156095434823725 0.997059247776335 -0.317421571171312
      vertex 0.173708041386423 -0.002940986280277 -0.308159795923973
   endloop
endfacet
facet normal -0.000014474925190 -0.999999999894674 0.000001062649801
   outer loop
      vertex -0.357714849816624 0.997067011475798 0.371883956933887
      vertex 0.350244723086139 0.997056309449660 -0.055692731089738
      vertex 0.352891771942641 0.997056292106432 -0.035956590523483
   endloop
endfacet
facet normal -0.363075251445547 0.000005428794125 0.931759819780978
   outer loop
      vertex 0.137976013676944 0.997059532991536 -0.325680389849198
      vertex 0.119422005990353 0.997059876902332 -0.332910258389335
      vertex 0.137960795735250 -0.002940410747334 -0.325680493378224
   endloop
endfacet
facet normal 0.452823416105264 -0.000007027276640 0.891600220826227
   outer loop
      vertex -0.151969891029189 -0.002936039637438 -0.319553072177770
      vertex -0.169709003664476 0.997064242054089 -0.310535899825170
      vertex -0.169724119652305 -0.002935798607876 -0.310536104405289
   endloop
endfacet
facet normal 0.297078578734967 -0.000004619779754 0.954853034783610
   outer loop
      vertex -0.096056654686814 0.997063118138594 -0.340448387441365
      vertex -0.115070438200106 0.997063398867476 -0.334532725472421
      vertex -0.096071872628507 -0.002936825600275 -0.340448490970391
   endloop
endfacet
facet normal 0.243072275837644 -0.000003799483936 0.970008179710188
   outer loop
      vertex -0.076756227051577 -0.002937146558513 -0.345288757299155
      vertex -0.096056654686814 0.997063118138594 -0.340448387441365
      vertex -0.096071872628507 -0.002936825600275 -0.340448490970391
   endloop
endfacet
facet normal 0.188298788532387 -0.000002967858947 0.982111789069059
   outer loop
      vertex -0.057184416030544 0.997062558992048 -0.349038209397455
      vertex -0.076741009109883 0.997062797180357 -0.345288653770129
      vertex -0.057199631977282 -0.002937484721337 -0.349038313983044
   endloop
endfacet
facet normal 0.188298821168734 -0.000002967197725 0.982111782811743
   outer loop
      vertex -0.057199631977282 -0.002937484721337 -0.349038313983044
      vertex -0.076741009109883 0.997062797180357 -0.345288653770129
      vertex -0.076756227051577 -0.002937146558513 -0.345288757299155
   endloop
endfacet
facet normal 0.000014186410841 0.999999999898504 -0.000001317996269
   outer loop
      vertex -0.357730047783487 -0.002932930807705 0.371883753410420
      vertex 0.328751540308004 -0.002943333939182 -0.132231202717296
      vertex 0.320744224781800 -0.002943244373743 -0.150463142780003
   endloop
endfacet
facet normal -0.000015192071169 -0.999999999884423 0.000000596579673
   outer loop
      vertex -0.276154724971389 0.997065854098447 -0.221904860967662
      vertex -0.263202559530730 0.997065648305014 -0.237029771797740
      vertex 0.266190672548432 0.997057607910571 -0.233366864666625
   endloop
endfacet
facet normal -0.000014873209154 -0.999999999889326 0.000000368694224
   outer loop
      vertex -0.357714849816624 0.997067011475798 0.371883956933887
      vertex 0.352891771942641 0.997056292106432 -0.035956590523483
      vertex 0.354428099819659 0.997056276576170 -0.016103108039192
   endloop
endfacet
facet normal 0.132935809684544 -0.000002126401462 0.991124649324692
   outer loop
      vertex -0.037463500635178 -0.002937789010695 -0.351685446815869
      vertex -0.057184416030544 0.997062558992048 -0.349038209397455
      vertex -0.057199631977282 -0.002937484721337 -0.349038313983044
   endloop
endfacet
facet normal -0.970009165409697 0.000014712094210 0.243068341839776
   outer loop
      vertex 0.341654867836944 0.997056455626137 -0.094564989219083
      vertex 0.346479836879776 -0.002943609653678 -0.075249531459343
      vertex 0.346495054842657 0.997056333028838 -0.075249327935898
   endloop
endfacet
facet normal 0.595775911242527 -0.000009165356766 0.803150710327229
   outer loop
      vertex -0.203578045070033 -0.002935282630255 -0.289589586504371
      vertex -0.219555805268080 0.997065062040638 -0.277725897810566
      vertex -0.219571021219053 -0.002934981461477 -0.277726022395039
   endloop
endfacet
facet normal 0.000015221411593 0.999999999879571 0.000003027547036
   outer loop
      vertex -0.234873726885735 -0.002934787108597 -0.264984386662432
      vertex 0.223096122898309 -0.002941728753150 -0.274663188829854
      vertex -0.219571021219053 -0.002934981461477 -0.277726022395039
   endloop
endfacet
facet normal 0.549802490038791 -0.000008536661284 0.835294691635395
   outer loop
      vertex -0.186929726515346 0.997064557804538 -0.300537589530736
      vertex -0.203562829116940 0.997064760766226 -0.289589451920457
      vertex -0.186944942483271 -0.002935484852496 -0.300537794110743
   endloop
endfacet
facet normal 0.549804942935118 -0.000008478222866 0.835293077100626
   outer loop
      vertex -0.186944942483271 -0.002935484852496 -0.300537794110743
      vertex -0.203562829116940 0.997064760766226 -0.289589451920457
      vertex -0.203578045070033 -0.002935282630255 -0.289589586504371
   endloop
endfacet
facet normal 0.000015180519304 0.999999999872665 -0.000004921547537
   outer loop
      vertex -0.219571021219053 -0.002934981461477 -0.277726022395039
      vertex 0.207268754989163 -0.002941505507703 -0.286746917320545
      vertex -0.203578045070033 -0.002935282630255 -0.289589586504371
   endloop
endfacet
facet normal 0.000015190419913 0.999999999864737 0.000006306859225
   outer loop
      vertex -0.263217745487676 -0.002934394598582 -0.237029896382246
      vertex 0.252595932346629 -0.002942161272136 -0.247931171948331
      vertex -0.249437906226523 -0.002934513259823 -0.251404769801072
   endloop
endfacet
facet normal 0.000015044841461 0.999999999877207 0.000004386119824
   outer loop
      vertex -0.203578045070033 -0.002935282630255 -0.289589586504371
      vertex 0.190788756123435 -0.002941179259705 -0.297924185841464
      vertex -0.186944942483271 -0.002935484852496 -0.300537794110743
   endloop
endfacet
facet normal -0.000015233826862 -0.999999999883964 0.000000054571423
   outer loop
      vertex 0.252611150292561 0.997057782255463 -0.247931048420421
      vertex -0.249422698276483 0.997065429962633 -0.251404636273710
      vertex 0.238236169697853 0.997058000489443 -0.261710889381715
   endloop
endfacet
facet normal -0.000016231079336 -0.999999999866021 -0.000002123650920
   outer loop
      vertex -0.357714849816624 0.997067011475798 0.371883956933887
      vertex 0.354428099819659 0.997056276576170 -0.016103108039192
      vertex 0.354848906399258 0.997056227467699 0.003805213517637
   endloop
endfacet
facet normal -0.000015310965079 -0.999999999876324 -0.000003595361818
   outer loop
      vertex -0.249422698276483 0.997065429962633 -0.251404636273710
      vertex -0.234858540928788 0.997065255794997 -0.264984262077926
      vertex 0.238236169697853 0.997058000489443 -0.261710889381715
   endloop
endfacet
facet normal 0.000029839445181 0.999999999554802 0.000000052382942
   outer loop
      vertex -0.357730047783487 -0.002932930807705 0.371883753410420
      vertex -0.352642175388252 -0.002933061007401 -0.040838263282652
      vertex -0.354453115126447 -0.002933008008733 -0.021007972121103
   endloop
endfacet
facet normal 0.931759192234530 -0.000014206518298 0.363076861676191
   outer loop
      vertex -0.334401934394889 0.997066705174504 -0.118215572344630
      vertex -0.334417129347517 -0.002933237788594 -0.118215705872007
      vertex -0.327172040113878 0.997066572874806 -0.136769551317554
   endloop
endfacet
facet normal 0.950651161956107 -0.000014479700035 0.310261773445977
   outer loop
      vertex -0.340580125066576 0.997066843940454 -0.099285415149944
      vertex -0.340595319019811 -0.002933199228380 -0.099285529734999
      vertex -0.334401934394889 0.997066705174504 -0.118215572344630
   endloop
endfacet
facet normal 0.966552153299089 -0.000014710635900 0.256470143947579
   outer loop
      vertex -0.345687173665992 0.997066906000261 -0.080038618054176
      vertex -0.345702365617506 -0.002933137234307 -0.080038722639792
      vertex -0.340580125066576 0.997066843940454 -0.099285415149944
   endloop
endfacet
facet normal 0.995856144316977 -0.000015151606373 0.090942507094059
   outer loop
      vertex -0.354437919154540 0.997067034249287 -0.021007767541074
      vertex -0.354453115126447 -0.002933008008733 -0.021007972121103
      vertex -0.352626989435544 0.997066982107462 -0.040838158697030
   endloop
endfacet
facet normal 0.999388654078601 -0.000015195792044 0.034961662833036
   outer loop
      vertex -0.354437919154540 0.997067034249287 -0.021007767541074
      vertex -0.355134104853080 0.997066982607207 -0.001107109760855
      vertex -0.355149302819943 -0.002932959676296 -0.001107313284321
   endloop
endfacet
facet normal -0.465120115616457 0.000006986522372 0.885247580058891
   outer loop
      vertex 0.173708041386423 -0.002940986280277 -0.308159795923973
      vertex 0.156095434823725 0.997059247776335 -0.317421571171312
      vertex 0.156080216882032 -0.002940695962532 -0.317421674700340
   endloop
endfacet
facet normal -0.000015083720908 -0.999999999843199 0.000009278117535
   outer loop
      vertex 0.119422005990353 0.997059876902332 -0.332910258389335
      vertex -0.115070438200106 0.997063398867476 -0.334532725472421
      vertex 0.100491826894716 0.997060105117514 -0.339088489745065
   endloop
endfacet
facet normal 0.021129355883980 -0.000000423952971 0.999776750239646
   outer loop
      vertex 0.002298422968767 -0.002938377812503 -0.353642587377304
      vertex -0.017594828874321 0.997061955345710 -0.353221737871758
      vertex -0.017609944840962 -0.002938086372605 -0.353221842457457
   endloop
endfacet
facet normal -0.414748244307458 0.000006217410140 0.909936203151202
   outer loop
      vertex 0.156080216882032 -0.002940695962532 -0.317421674700340
      vertex 0.137976013676944 0.997059532991536 -0.325680389849198
      vertex 0.137960795735250 -0.002940410747334 -0.325680493378224
   endloop
endfacet
facet normal -0.999976063342699 0.000015218294599 -0.006918996317555
   outer loop
      vertex 0.352261201249291 0.997056251245368 0.377796337454430
      vertex 0.354848906399258 0.997056227467699 0.003805213517637
      vertex 0.354833688457565 -0.002943716271170 0.003805109988612
   endloop
endfacet
facet normal 0.021129249825519 -0.000000426063762 0.999776752481087
   outer loop
      vertex 0.002313638915504 0.997061665900882 -0.353642482791715
      vertex -0.017594828874321 0.997061955345710 -0.353221737871758
      vertex 0.002298422968767 -0.002938377812503 -0.353642587377304
   endloop
endfacet
facet normal 0.000018511129851 0.999999999822392 0.000003543146501
   outer loop
      vertex -0.357730047783487 -0.002932930807705 0.371883753410420
      vertex 0.278917213231585 -0.002942625595383 -0.218064316928887
      vertex 0.266175454600383 -0.002942335511393 -0.233366998193976
   endloop
endfacet
facet normal 0.000014008702430 0.999999999901275 -0.000001098052597
   outer loop
      vertex -0.357730047783487 -0.002932930807705 0.371883753410420
      vertex 0.266175454600383 -0.002942335511393 -0.233366998193976
      vertex 0.252595932346629 -0.002942161272136 -0.247931171948331
   endloop
endfacet
facet normal -0.000015373621955 -0.999999999848902 -0.000008114739014
   outer loop
      vertex 0.137976013676944 0.997059532991536 -0.325680389849198
      vertex -0.133722749518931 0.997063725240431 -0.327560280625804
      vertex 0.119422005990353 0.997059876902332 -0.332910258389335
   endloop
endfacet
facet normal 0.077155736900407 -0.000001278271353 0.997019053108676
   outer loop
      vertex -0.017609944840962 -0.002938086372605 -0.353221842457457
      vertex -0.037448284688442 0.997062254702690 -0.351685342230280
      vertex -0.037463500635178 -0.002937789010695 -0.351685446815869
   endloop
endfacet
facet normal 0.000012641551824 0.999999999916201 -0.000002791056395
   outer loop
      vertex -0.357730047783487 -0.002932930807705 0.371883753410420
      vertex 0.290780694126641 -0.002942730930724 -0.202071280081002
      vertex 0.278917213231585 -0.002942625595383 -0.218064316928887
   endloop
endfacet
facet normal -0.000015427659306 -0.999999999880947 -0.000000304773882
   outer loop
      vertex -0.151954675082452 0.997064004075947 -0.319552967592181
      vertex -0.133722749518931 0.997063725240431 -0.327560280625804
      vertex 0.137976013676944 0.997059532991536 -0.325680389849198
   endloop
endfacet
facet normal -0.363075331428044 0.000005427086021 0.931759788614513
   outer loop
      vertex 0.137960795735250 -0.002940410747334 -0.325680493378224
      vertex 0.119422005990353 0.997059876902332 -0.332910258389335
      vertex 0.119406790043617 -0.002940166811052 -0.332910362974924
   endloop
endfacet
facet normal 0.077156123130764 -0.000001270563262 0.997019023219626
   outer loop
      vertex -0.017594828874321 0.997061955345710 -0.353221737871758
      vertex -0.037448284688442 0.997062254702690 -0.351685342230280
      vertex -0.017609944840962 -0.002938086372605 -0.353221842457457
   endloop
endfacet
facet normal 0.000017184928271 0.999999999849596 0.000002342496340
   outer loop
      vertex -0.357730047783487 -0.002932930807705 0.371883753410420
      vertex 0.301728895981073 -0.002942958037687 -0.185438212857141
      vertex 0.290780694126641 -0.002942730930724 -0.202071280081002
   endloop
endfacet
facet normal -0.000015155421540 -0.999999999885156 -0.000000041284652
   outer loop
      vertex 0.352261201249291 0.997056251245368 0.377796337454430
      vertex -0.357714849816624 0.997067011475798 0.371883956933887
      vertex 0.354848906399258 0.997056227467699 0.003805213517637
   endloop
endfacet
facet normal -0.000013168809161 -0.999999999913291 -0.000000029144900
   outer loop
      vertex -0.357714849816624 0.997067011475798 0.371883956933887
      vertex -0.309651368554992 0.997066394403490 -0.172516760965750
      vertex -0.299415727369632 0.997066260110102 -0.189597536612190
   endloop
endfacet
facet normal 0.966552211248662 -0.000014715136082 0.256469925554218
   outer loop
      vertex -0.340580125066576 0.997066843940454 -0.099285415149944
      vertex -0.345702365617506 -0.002933137234307 -0.080038722639792
      vertex -0.340595319019811 -0.002933199228380 -0.099285529734999
   endloop
endfacet
facet normal 0.000017159251486 0.999999999849546 0.000002543414431
   outer loop
      vertex -0.357730047783487 -0.002932930807705 0.371883753410420
      vertex 0.320744224781800 -0.002943244373743 -0.150463142780003
      vertex 0.311727206612896 -0.002943044491922 -0.168217441071969
   endloop
endfacet
facet normal 0.989190256196780 -0.000015037132004 0.146637774189442
   outer loop
      vertex -0.352626989435544 0.997066982107462 -0.040838158697030
      vertex -0.352642175388252 -0.002933061007401 -0.040838263282652
      vertex -0.349707010274952 0.997066952193815 -0.060535777202025
   endloop
endfacet
facet normal 0.000014796470883 0.999999999889986 0.000001045598457
   outer loop
      vertex 0.061726974577026 -0.002939245275756 -0.348215485844099
      vertex 0.042029445004571 -0.002938950768701 -0.351135472038499
      vertex -0.057199631977282 -0.002937484721337 -0.349038313983044
   endloop
endfacet
facet normal 0.000011296224581 0.999999999936180 -0.000000185524650
   outer loop
      vertex -0.357730047783487 -0.002932930807705 0.371883753410420
      vertex -0.318928385219747 -0.002933466849345 -0.154889077208704
      vertex -0.327187235064387 -0.002933370193926 -0.136769674845489
   endloop
endfacet
facet normal -0.561309000215927 0.000008429468555 0.827606311119931
   outer loop
      vertex 0.207283970942256 0.997058537888776 -0.286746782736631
      vertex 0.190803974073603 0.997058764056623 -0.297924042314671
      vertex 0.207268754989163 -0.002941505507703 -0.286746917320545
   endloop
endfacet
facet normal 0.999388650640340 -0.000015193833695 0.034961761117364
   outer loop
      vertex -0.354437919154540 0.997067034249287 -0.021007767541074
      vertex -0.355149302819943 -0.002932959676296 -0.001107313284321
      vertex -0.354453115126447 -0.002933008008733 -0.021007972121103
   endloop
endfacet
facet normal 0.827605686993023 -0.000012639598670 0.561309920362224
   outer loop
      vertex -0.299415727369632 0.997066260110102 -0.189597536612190
      vertex -0.299430913327214 -0.002933782761800 -0.189597664196528
      vertex -0.288238446860723 0.997066063393773 -0.206077524906012
   endloop
endfacet
facet normal 0.681952692496635 -0.000010468764489 0.731396284572868
   outer loop
      vertex -0.234873726885735 -0.002934787108597 -0.264984386662432
      vertex -0.249422698276483 0.997065429962633 -0.251404636273710
      vertex -0.249437906226523 -0.002934513259823 -0.251404769801072
   endloop
endfacet
facet normal -0.000015180580374 -0.999999999872621 0.000004930373464
   outer loop
      vertex -0.219555805268080 0.997065062040638 -0.277725897810566
      vertex -0.203562829116940 0.997064760766226 -0.289589451920457
      vertex 0.207283970942256 0.997058537888776 -0.286746782736631
   endloop
endfacet
facet normal -0.835292672771459 0.000012555013911 0.549805557135141
   outer loop
      vertex 0.301744011953011 0.997057083416542 -0.185438083272837
      vertex 0.290780694126641 -0.002942730930724 -0.202071280081002
      vertex 0.301728895981073 -0.002942958037687 -0.185438212857141
   endloop
endfacet
facet normal 0.721889885389147 -0.000011070867936 0.692007943054327
   outer loop
      vertex -0.249422698276483 0.997065429962633 -0.251404636273710
      vertex -0.263217745487676 -0.002934394598582 -0.237029896382246
      vertex -0.249437906226523 -0.002934513259823 -0.251404769801072
   endloop
endfacet
facet normal 0.000014982430240 0.999999999887673 -0.000000424501754
   outer loop
      vertex -0.357730047783487 -0.002932930807705 0.371883753410420
      vertex 0.354412983853019 -0.002943765142146 -0.016103212624891
      vertex 0.352876555974715 -0.002943750550603 -0.035956795103491
   endloop
endfacet
facet normal 0.000013046475707 0.999999999911632 -0.000002554385037
   outer loop
      vertex -0.357730047783487 -0.002932930807705 0.371883753410420
      vertex 0.311727206612896 -0.002943044491922 -0.168217441071969
      vertex 0.301728895981073 -0.002942958037687 -0.185438212857141
   endloop
endfacet
facet normal 0.909935468156488 -0.000013877658388 0.414749856658496
   outer loop
      vertex -0.318913196261279 0.997066576008467 -0.154888942624760
      vertex -0.327172040113878 0.997066572874806 -0.136769551317554
      vertex -0.327187235064387 -0.002933370193926 -0.136769674845489
   endloop
endfacet
facet normal 0.000014654007478 0.999999999876412 -0.000005695196354
   outer loop
      vertex -0.057199631977282 -0.002937484721337 -0.349038313983044
      vertex 0.042029445004571 -0.002938950768701 -0.351135472038499
      vertex -0.037463500635178 -0.002937789010695 -0.351685446815869
   endloop
endfacet
facet normal -0.000015305559964 -0.999999999871756 -0.000004714707043
   outer loop
      vertex -0.203562829116940 0.997064760766226 -0.289589451920457
      vertex -0.186929726515346 0.997064557804538 -0.300537589530736
      vertex 0.190803974073603 0.997058764056623 -0.297924042314671
   endloop
endfacet
facet normal 0.000019029087430 0.999999999818908 0.000000278806010
   outer loop
      vertex -0.357730047783487 -0.002932930807705 0.371883753410420
      vertex -0.327187235064387 -0.002933370193926 -0.136769674845489
      vertex -0.334417129347517 -0.002933237788594 -0.118215705872007
   endloop
endfacet
facet normal -0.000015212689865 -0.999999999882992 0.000001609203963
   outer loop
      vertex -0.288238446860723 0.997066063393773 -0.206077524906012
      vertex -0.276154724971389 0.997065854098447 -0.221904860967662
      vertex 0.278932329202463 0.997057415911662 -0.218064192344305
   endloop
endfacet
facet normal 0.999976064096607 -0.000015199012119 0.006918887399608
   outer loop
      vertex -0.355134104853080 0.997066982607207 -0.001107109760855
      vertex -0.357730047783487 -0.002932930807705 0.371883753410420
      vertex -0.355149302819943 -0.002932959676296 -0.001107313284321
   endloop
endfacet
facet normal 0.000008919677539 0.999999999960199 -0.000000205507610
   outer loop
      vertex -0.357730047783487 -0.002932930807705 0.371883753410420
      vertex -0.349722205225869 -0.002933091100604 -0.060535881787638
      vertex -0.352642175388252 -0.002933061007401 -0.040838263282652
   endloop
endfacet
facet normal -0.606830326420541 0.000009126529865 0.794831400268664
   outer loop
      vertex 0.223111338851403 0.997058314643330 -0.274663054245939
      vertex 0.207283970942256 0.997058537888776 -0.286746782736631
      vertex 0.223096122898309 -0.002941728753150 -0.274663188829854
   endloop
endfacet
facet normal -0.000015253001656 -0.999999999882543 0.000001503627177
   outer loop
      vertex 0.223111338851403 0.997058314643330 -0.274663054245939
      vertex -0.219555805268080 0.997065062040638 -0.277725897810566
      vertex 0.207283970942256 0.997058537888776 -0.286746782736631
   endloop
endfacet
facet normal -0.000015250775721 -0.999999999883688 -0.000000192896962
   outer loop
      vertex -0.357714849816624 0.997067011475798 0.371883956933887
      vertex -0.288238446860723 0.997066063393773 -0.206077524906012
      vertex 0.278932329202463 0.997057415911662 -0.218064192344305
   endloop
endfacet
facet normal -0.000012528874327 -0.999999999921509 -0.000000100056311
   outer loop
      vertex -0.357714849816624 0.997067011475798 0.371883956933887
      vertex -0.345687173665992 0.997066906000261 -0.080038618054176
      vertex -0.340580125066576 0.997066843940454 -0.099285415149944
   endloop
endfacet
facet normal 0.000013633229635 0.999999999756134 -0.000017374316983
   outer loop
      vertex -0.037463500635178 -0.002937789010695 -0.351685446815869
      vertex 0.022199089574706 -0.002938624312130 -0.352946367844073
      vertex -0.017609944840962 -0.002938086372605 -0.353221842457457
   endloop
endfacet
facet normal 0.000014944727011 0.999999999888231 -0.000000440554075
   outer loop
      vertex -0.357730047783487 -0.002932930807705 0.371883753410420
      vertex 0.341639651892326 -0.002943588192883 -0.094565083805230
      vertex 0.335724052022457 -0.002943508162499 -0.113578960825399
   endloop
endfacet
facet normal -0.000015237478979 -0.999999999883740 0.000000582407901
   outer loop
      vertex -0.263202559530730 0.997065648305014 -0.237029771797740
      vertex -0.249422698276483 0.997065429962633 -0.251404636273710
      vertex 0.252611150292561 0.997057782255463 -0.247931048420421
   endloop
endfacet
facet normal 0.827605841102234 -0.000012645068114 0.561309693140574
   outer loop
      vertex -0.288238446860723 0.997066063393773 -0.206077524906012
      vertex -0.299430913327214 -0.002933782761800 -0.189597664196528
      vertex -0.288253642815255 -0.002933979730456 -0.206077647490619
   endloop
endfacet
facet normal -0.000015412654061 -0.999999999873404 -0.000003955075410
   outer loop
      vertex -0.169709003664476 0.997064242054089 -0.310535899825170
      vertex -0.151954675082452 0.997064004075947 -0.319552967592181
      vertex 0.156095434823725 0.997059247776335 -0.317421571171312
   endloop
endfacet
facet normal -0.982110907217147 0.000014907404031 0.188303387390887
   outer loop
      vertex 0.346495054842657 0.997056333028838 -0.075249327935898
      vertex 0.346479836879776 -0.002943609653678 -0.075249531459343
      vertex 0.350229507139402 -0.002943734263724 -0.055692835675326
   endloop
endfacet
facet normal -0.000010650114259 -0.999999999943286 -0.000000060132369
   outer loop
      vertex -0.357714849816624 0.997067011475798 0.371883956933887
      vertex -0.352626989435544 0.997066982107462 -0.040838158697030
      vertex -0.349707010274952 0.997066952193815 -0.060535777202025
   endloop
endfacet
facet normal -0.000032385405360 -0.999999999475539 -0.000000328075671
   outer loop
      vertex -0.357714849816624 0.997067011475798 0.371883956933887
      vertex -0.354437919154540 0.997067034249287 -0.021007767541074
      vertex -0.352626989435544 0.997066982107462 -0.040838158697030
   endloop
endfacet
facet normal 0.000015065405489 0.999999999886382 -0.000000520045193
   outer loop
      vertex -0.151969891029189 -0.002936039637438 -0.319553072177770
      vertex 0.137960795735250 -0.002940410747334 -0.325680493378224
      vertex -0.133737965465667 -0.002936318472954 -0.327560385211393
   endloop
endfacet
facet normal 0.000095224893937 -0.999999995465839 0.000000736263628
   outer loop
      vertex -0.357714849816624 0.997067011475798 0.371883956933887
      vertex -0.355134104853080 0.997066982607207 -0.001107109760855
      vertex -0.354437919154540 0.997067034249287 -0.021007767541074
   endloop
endfacet
facet normal -0.692008068539671 0.000010365364304 0.721889765108602
   outer loop
      vertex 0.252595932346629 -0.002942161272136 -0.247931171948331
      vertex 0.238236169697853 0.997058000489443 -0.261710889381715
      vertex 0.238221051729899 -0.002941940937451 -0.261711022909176
   endloop
endfacet
facet normal 0.000015142053610 0.999999999871311 -0.000005300571385
   outer loop
      vertex -0.186944942483271 -0.002935484852496 -0.300537794110743
      vertex 0.173708041386423 -0.002940986280277 -0.308159795923973
      vertex -0.169724119652305 -0.002935798607876 -0.310536104405289
   endloop
endfacet
facet normal 0.000015096415200 0.999999999873540 -0.000005001845676
   outer loop
      vertex 0.137960795735250 -0.002940410747334 -0.325680493378224
      vertex 0.119406790043617 -0.002940166811052 -0.332910362974924
      vertex -0.133737965465667 -0.002936318472954 -0.327560385211393
   endloop
endfacet
facet normal 0.000017272133549 0.999999999846678 0.000002884005277
   outer loop
      vertex -0.357730047783487 -0.002932930807705 0.371883753410420
      vertex 0.335724052022457 -0.002943508162499 -0.113578960825399
      vertex 0.328751540308004 -0.002943333939182 -0.132231202717296
   endloop
endfacet
facet normal 0.000015105840017 0.999999999884936 0.000001393192071
   outer loop
      vertex 0.156080216882032 -0.002940695962532 -0.317421674700340
      vertex 0.137960795735250 -0.002940410747334 -0.325680493378224
      vertex -0.151969891029189 -0.002936039637438 -0.319553072177770
   endloop
endfacet
facet normal 0.000013691362477 0.999999999903583 -0.000002319785207
   outer loop
      vertex -0.357730047783487 -0.002932930807705 0.371883753410420
      vertex 0.346479836879776 -0.002943609653678 -0.075249531459343
      vertex 0.341639651892326 -0.002943588192883 -0.094565083805230
   endloop
endfacet
facet normal 0.000015087175975 0.999999999882729 0.000002630530571
   outer loop
      vertex 0.173708041386423 -0.002940986280277 -0.308159795923973
      vertex 0.156080216882032 -0.002940695962532 -0.317421674700340
      vertex -0.169724119652305 -0.002935798607876 -0.310536104405289
   endloop
endfacet
facet normal 0.000014577553787 0.999999999893109 -0.000001129943826
   outer loop
      vertex -0.357730047783487 -0.002932930807705 0.371883753410420
      vertex 0.352876555974715 -0.002943750550603 -0.035956795103491
      vertex 0.350229507139402 -0.002943734263724 -0.055692835675326
   endloop
endfacet
facet normal 0.000015119311236 0.999999999865372 -0.000006376680421
   outer loop
      vertex 0.190788756123435 -0.002941179259705 -0.297924185841464
      vertex 0.173708041386423 -0.002940986280277 -0.308159795923973
      vertex -0.186944942483271 -0.002935484852496 -0.300537794110743
   endloop
endfacet
facet normal 0.000013718349624 0.999999999902137 -0.000002744698774
   outer loop
      vertex -0.357730047783487 -0.002932930807705 0.371883753410420
      vertex 0.354833688457565 -0.002943716271170 0.003805109988612
      vertex 0.354412983853019 -0.002943765142146 -0.016103212624891
   endloop
endfacet
facet normal 0.000015098539147 0.999999999862026 0.000006926924032
   outer loop
      vertex 0.207268754989163 -0.002941505507703 -0.286746917320545
      vertex 0.190788756123435 -0.002941179259705 -0.297924185841464
      vertex -0.203578045070033 -0.002935282630255 -0.289589586504371
   endloop
endfacet
facet normal 0.008327427045382 0.000000076956454 -0.999965326378269
   outer loop
      vertex 0.352246085282650 -0.002943790472947 0.377796232868731
      vertex -0.357730047783487 -0.002932930807705 0.371883753410420
      vertex -0.357714849816624 0.997067011475798 0.371883956933887
   endloop
endfacet
facet normal 0.000015252760806 0.999999999882547 -0.000001503311705
   outer loop
      vertex 0.223096122898309 -0.002941728753150 -0.274663188829854
      vertex 0.207268754989163 -0.002941505507703 -0.286746917320545
      vertex -0.219571021219053 -0.002934981461477 -0.277726022395039
   endloop
endfacet
facet normal 0.000013790760420 0.999999999099330 -0.000040139205271
   outer loop
      vertex 0.022199089574706 -0.002938624312130 -0.352946367844073
      vertex 0.002298422968767 -0.002938377812503 -0.353642587377304
      vertex -0.017609944840962 -0.002938086372605 -0.353221842457457
   endloop
endfacet
facet normal -0.414748244307520 0.000006217410139 0.909936203151174
   outer loop
      vertex 0.156095434823725 0.997059247776335 -0.317421571171312
      vertex 0.137976013676944 0.997059532991536 -0.325680389849198
      vertex 0.156080216882032 -0.002940695962532 -0.317421674700340
   endloop
endfacet
facet normal -0.970008866101377 0.000014736609529 0.243069536280369
   outer loop
      vertex 0.341654867836944 0.997056455626137 -0.094564989219083
      vertex 0.341639651892326 -0.002943588192883 -0.094565083805230
      vertex 0.346479836879776 -0.002943609653678 -0.075249531459343
   endloop
endfacet
facet normal -0.146638767607717 0.000002114469383 0.989190109043767
   outer loop
      vertex 0.061726974577026 -0.002939245275756 -0.348215485844099
      vertex 0.042044562966168 0.997060990975100 -0.351135368509363
      vertex 0.042029445004571 -0.002938950768701 -0.351135472038499
   endloop
endfacet
facet normal -0.000011894989434 -0.999999999929251 -0.000000083185805
   outer loop
      vertex -0.357714849816624 0.997067011475798 0.371883956933887
      vertex -0.349707010274952 0.997066952193815 -0.060535777202025
      vertex -0.345687173665992 0.997066906000261 -0.080038618054176
   endloop
endfacet
facet normal 0.000014463131477 0.999999999655738 0.000021893878634
   outer loop
      vertex 0.042029445004571 -0.002938950768701 -0.351135472038499
      vertex 0.022199089574706 -0.002938624312130 -0.352946367844073
      vertex -0.037463500635178 -0.002937789010695 -0.351685446815869
   endloop
endfacet
facet normal 0.000015385751748 0.999999999843893 0.000008688684101
   outer loop
      vertex -0.133737965465667 -0.002936318472954 -0.327560385211393
      vertex 0.119406790043617 -0.002940166811052 -0.332910362974924
      vertex -0.115085656141800 -0.002936544871393 -0.334532829001447
   endloop
endfacet
facet normal 0.000015330084599 0.999999999882492 -0.000000061600969
   outer loop
      vertex 0.100476608953022 -0.002939838621355 -0.339088593274091
      vertex 0.081229866698528 -0.002939543881764 -0.344195597057345
      vertex -0.096071872628507 -0.002936825600275 -0.340448490970391
   endloop
endfacet
facet normal 0.000015130243448 0.999999999884711 -0.000001286236946
   outer loop
      vertex 0.238221051729899 -0.002941940937451 -0.261711022909176
      vertex 0.223096122898309 -0.002941728753150 -0.274663188829854
      vertex -0.234873726885735 -0.002934787108597 -0.264984386662432
   endloop
endfacet
facet normal -0.256468724002433 0.000003802860061 0.966552530178315
   outer loop
      vertex 0.100476608953022 -0.002939838621355 -0.339088593274091
      vertex 0.081245084640221 0.997060399857104 -0.344195493528320
      vertex 0.081229866698528 -0.002939543881764 -0.344195597057345
   endloop
endfacet
facet normal 0.000015233376168 0.999999999883967 0.000000098456873
   outer loop
      vertex 0.252595932346629 -0.002942161272136 -0.247931171948331
      vertex 0.238221051729899 -0.002941940937451 -0.261711022909176
      vertex -0.249437906226523 -0.002934513259823 -0.251404769801072
   endloop
endfacet
facet normal 0.995856057216886 -0.000015132533715 0.090943460872372
   outer loop
      vertex -0.352626989435544 0.997066982107462 -0.040838158697030
      vertex -0.354453115126447 -0.002933008008733 -0.021007972121103
      vertex -0.352642175388252 -0.002933061007401 -0.040838263282652
   endloop
endfacet
facet normal 0.000015055712403 0.999999999886661 -0.000000067071635
   outer loop
      vertex -0.357730047783487 -0.002932930807705 0.371883753410420
      vertex 0.252595932346629 -0.002942161272136 -0.247931171948331
      vertex -0.263217745487676 -0.002934394598582 -0.237029896382246
   endloop
endfacet
facet normal 0.000015094787101 0.999999999881602 0.000002990666032
   outer loop
      vertex -0.169724119652305 -0.002935798607876 -0.310536104405289
      vertex 0.156080216882032 -0.002940695962532 -0.317421674700340
      vertex -0.151969891029189 -0.002936039637438 -0.319553072177770
   endloop
endfacet
facet normal 0.000017703774991 0.999999999843239 0.000000313294089
   outer loop
      vertex -0.357730047783487 -0.002932930807705 0.371883753410420
      vertex -0.276169910930454 -0.002934188699511 -0.221904995551610
      vertex -0.288253642815255 -0.002933979730456 -0.206077647490619
   endloop
endfacet
facet normal -0.692005298704982 0.000010441725948 0.721892420278257
   outer loop
      vertex 0.252611150292561 0.997057782255463 -0.247931048420421
      vertex 0.238236169697853 0.997058000489443 -0.261710889381715
      vertex 0.252595932346629 -0.002942161272136 -0.247931171948331
   endloop
endfacet
facet normal -0.034963287950057 0.000000428603574 0.999388597341163
   outer loop
      vertex 0.022214307516400 0.997061319426740 -0.352946264315047
      vertex 0.002313638915504 0.997061665900882 -0.353642482791715
      vertex 0.022199089574706 -0.002938624312130 -0.352946367844073
   endloop
endfacet
facet normal -0.650442206621444 0.000009794873695 0.759555748941108
   outer loop
      vertex 0.238221051729899 -0.002941940937451 -0.261711022909176
      vertex 0.223111338851403 0.997058314643330 -0.274663054245939
      vertex 0.223096122898309 -0.002941728753150 -0.274663188829854
   endloop
endfacet
facet normal 0.721889118547144 -0.000011048790167 0.692008743009185
   outer loop
      vertex -0.263202559530730 0.997065648305014 -0.237029771797740
      vertex -0.263217745487676 -0.002934394598582 -0.237029896382246
      vertex -0.249422698276483 0.997065429962633 -0.251404636273710
   endloop
endfacet
facet normal 0.000017125168873 0.999999999848596 0.000003088267576
   outer loop
      vertex -0.357730047783487 -0.002932930807705 0.371883753410420
      vertex 0.350229507139402 -0.002943734263724 -0.055692835675326
      vertex 0.346479836879776 -0.002943609653678 -0.075249531459343
   endloop
endfacet
facet normal -0.650444607037882 0.000009731980019 0.759553693349340
   outer loop
      vertex 0.238236169697853 0.997058000489443 -0.261710889381715
      vertex 0.223111338851403 0.997058314643330 -0.274663054245939
      vertex 0.238221051729899 -0.002941940937451 -0.261711022909176
   endloop
endfacet
facet normal 0.000012792346512 0.999999999918160 -0.000000189091504
   outer loop
      vertex -0.357730047783487 -0.002932930807705 0.371883753410420
      vertex -0.299430913327214 -0.002933782761800 -0.189597664196528
      vertex -0.309666564512067 -0.002933648593975 -0.172516895549687
   endloop
endfacet
end solid no_name
