solid no_name
facet normal 0.976549523065242 -0.0 0.215292891199522
   outer loop
      vertex -0.385931306131854 1.90777620733797 1.23149999999998
      vertex -0.11443130613186 1.57282620733797 1.62430069394757e-015
      vertex -0.11443130613186 1.79542620733797 1.62430069394757e-015
   endloop
endfacet
facet normal 0.976549523065242 -4.72260250197545e-016 -0.215292891199522
   outer loop
      vertex -0.385931306131854 1.90777620733797 1.76849999999998
      vertex -0.11443130613186 1.79542620733797 2.99999999999996
      vertex -0.11443130613186 1.57282620733797 2.99999999999996
   endloop
endfacet
facet normal 0.215292891199545 -0.0 0.976549523065236
   outer loop
      vertex 1.65406869386813 0.61282620733798 1.76849999999998
      vertex 0.422568693868141 0.94777620733798 2.04
      vertex 0.422568693868141 0.500476207337986 2.04
   endloop
endfacet
facet normal 0.690533873487514 -0.690533873487518 -0.215234614160117
   outer loop
      vertex 0.042768693868144 1.95262620733797 2.99999999999996
      vertex -0.385931306131854 1.90777620733797 1.76849999999998
      vertex -0.0695813061318561 2.22412620733796 1.76849999999998
   endloop
endfacet
facet normal 0.81881719369497 -0.138608508839084 -0.557069191920447
   outer loop
      vertex 0.694068693868125 1.46047620733797 1.23149999999998
      vertex 0.422568693868131 0.947776207337982 0.960000000000018
      vertex 0.334268417625042 1.24912620733797 0.75522928176794
   endloop
endfacet
facet normal 0.215292891199545 -4.72260250197542e-016 0.976549523065236
   outer loop
      vertex 1.65406869386813 0.835426207337977 1.76849999999998
      vertex 0.422568693868141 0.94777620733798 2.04
      vertex 1.65406869386813 0.61282620733798 1.76849999999998
   endloop
endfacet
facet normal 2.36130125098792e-016 0.976549523065241 0.215292891199524
   outer loop
      vertex 0.265368693868132 1.95262620733797 2.99999999999996
      vertex 0.377718693868138 2.22412620733796 1.76849999999998
      vertex 0.042768693868144 1.95262620733797 2.99999999999996
   endloop
endfacet
facet normal 0.69053387348753 -0.6905338734875 -0.215234614160123
   outer loop
      vertex 0.694068693868125 1.46047620733797 1.23149999999998
      vertex 0.334268417625042 1.24912620733797 0.75522928176794
      vertex 0.26536869386813 1.41562620733797 1.62430069394757e-015
   endloop
endfacet
facet normal -0.0 0.976549523065241 0.215292891199524
   outer loop
      vertex 0.042768693868144 1.95262620733797 2.99999999999996
      vertex 0.377718693868138 2.22412620733796 1.76849999999998
      vertex -0.0695813061318561 2.22412620733796 1.76849999999998
   endloop
endfacet
facet normal 2.41096371026996e-014 -0.0 1.0
   outer loop
      vertex 0.422568693868128 -0.124573792662008 -2.16573425859676e-015
      vertex 0.26536869386813 0.03262620733799 1.62430069394757e-015
      vertex 0.422568693868128 -0.347173792662005 -2.16573425859676e-015
   endloop
endfacet
facet normal 0.827084710505844 0.562077291524453 1.79336183073685e-017
   outer loop
      vertex -0.590729416970263 0.289132246390059 1.31980277527627
      vertex -0.385931306131859 -0.0122237926620103 1.76849999999998
      vertex -0.385931306131859 -0.0122237926620103 1.23149999999998
   endloop
endfacet
facet normal 0.690533873487514 -0.690533873487519 -0.215234614160116
   outer loop
      vertex 0.694068693868125 1.46047620733797 1.23149999999998
      vertex 0.26536869386813 1.41562620733797 1.62430069394757e-015
      vertex 0.422568693868128 1.57282620733797 -2.16573425859676e-015
   endloop
endfacet
facet normal 0.0 -0.562033565059443 -0.827114424820757
   outer loop
      vertex 0.422568693868131 0.947776207337982 0.960000000000018
      vertex -0.0261310298887625 1.24912620733797 0.75522928176794
      vertex 0.334268417625042 1.24912620733797 0.75522928176794
   endloop
endfacet
facet normal 2.41096371026996e-014 -2.83095425879477e-031 1.0
   outer loop
      vertex 0.422568693868128 -0.347173792662005 -2.16573425859676e-015
      vertex 0.26536869386813 0.03262620733799 1.62430069394757e-015
      vertex 0.26536869386813 -0.504373792662003 1.62430069394757e-015
   endloop
endfacet
facet normal -1.11196884760227e-014 -0.562033565059455 -0.82711442482075
   outer loop
      vertex 0.422568693868131 0.947776207337982 0.960000000000018
      vertex -0.114431306131869 0.947776207337978 0.960000000000028
      vertex -0.0261310298887625 1.24912620733797 0.75522928176794
   endloop
endfacet
facet normal 1.45938966212722e-014 1.12947754893214e-030 1.0
   outer loop
      vertex 0.26536869386813 0.03262620733799 1.62430069394757e-015
      vertex 0.0427686938681339 0.03262620733799 4.87290208184271e-015
      vertex 0.26536869386813 -0.504373792662003 1.62430069394757e-015
   endloop
endfacet
facet normal 0.0 -0.976549523065241 -0.215292891199527
   outer loop
      vertex -0.0261310298887625 1.24912620733797 0.75522928176794
      vertex 0.0427686938681339 1.41562620733797 4.87290208184271e-015
      vertex 0.334268417625042 1.24912620733797 0.75522928176794
   endloop
endfacet
facet normal 1.45938966212722e-014 -0.0 1.0
   outer loop
      vertex 0.26536869386813 -0.504373792662003 1.62430069394757e-015
      vertex 0.0427686938681339 0.03262620733799 4.87290208184271e-015
      vertex 0.0427686938681339 -0.504373792662003 4.87290208184271e-015
   endloop
endfacet
facet normal -3.13929836391572e-015 -0.976549523065241 -0.215292891199525
   outer loop
      vertex 0.334268417625042 1.24912620733797 0.75522928176794
      vertex 0.0427686938681339 1.41562620733797 4.87290208184271e-015
      vertex 0.26536869386813 1.41562620733797 1.62430069394757e-015
   endloop
endfacet
facet normal 1.52985391452374e-014 -0.562033565059453 0.827114424820751
   outer loop
      vertex 0.422568693868131 0.500476207337986 0.960000000000018
      vertex -0.114431306131869 0.500476207337986 0.960000000000028
      vertex -0.0261310298887625 0.199126207337988 0.755229281767939
   endloop
endfacet
facet normal 0.0 0.0 -1.0
   outer loop
      vertex 0.422568693868131 -0.347173792662003 2.99999999999996
      vertex 0.26536869386813 -0.504373792662002 2.99999999999996
      vertex 0.422568693868131 -0.124573792662009 2.99999999999996
   endloop
endfacet
facet normal -0.818817193694968 -0.138608508839079 0.557069191920451
   outer loop
      vertex 0.422568693868131 0.500476207337986 0.960000000000018
      vertex 0.334268417625042 0.199126207337988 0.755229281767943
      vertex 0.694068693868125 -0.0122237926620103 1.23149999999998
   endloop
endfacet
facet normal 0.0 0.0 -1.0
   outer loop
      vertex 0.422568693868131 -0.124573792662009 2.99999999999996
      vertex 0.26536869386813 -0.504373792662002 2.99999999999996
      vertex 0.26536869386813 0.0326262073379906 2.99999999999996
   endloop
endfacet
facet normal -0.690533873487529 -0.690533873487501 0.215234614160122
   outer loop
      vertex 0.334268417625042 0.199126207337988 0.755229281767943
      vertex 0.26536869386813 0.03262620733799 1.62430069394757e-015
      vertex 0.694068693868125 -0.0122237926620103 1.23149999999998
   endloop
endfacet
facet normal -0.690533873487515 -0.690533873487518 0.215234614160116
   outer loop
      vertex 0.694068693868125 -0.0122237926620103 1.23149999999998
      vertex 0.26536869386813 0.03262620733799 1.62430069394757e-015
      vertex 0.422568693868128 -0.124573792662008 -2.16573425859676e-015
   endloop
endfacet
facet normal -2.0665403230886e-014 2.83095425879494e-031 1.0
   outer loop
      vertex 0.0427686938681339 0.03262620733799 4.87290208184271e-015
      vertex -0.11443130613186 -0.124573792662008 1.62430069394757e-015
      vertex 0.0427686938681339 -0.504373792662003 4.87290208184271e-015
   endloop
endfacet
facet normal -2.0665403230886e-014 -3.29504309784327e-030 1.0
   outer loop
      vertex 0.0427686938681339 -0.504373792662003 4.87290208184271e-015
      vertex -0.11443130613186 -0.124573792662008 1.62430069394757e-015
      vertex -0.11443130613186 -0.347173792662005 1.62430069394757e-015
   endloop
endfacet
facet normal 0.976549523065241 -2.92397681854332e-017 0.215292891199526
   outer loop
      vertex -0.385931306131859 -0.0122237926620103 1.23149999999998
      vertex -0.385931306131859 -0.459523792662002 1.23149999999998
      vertex -0.11443130613186 -0.347173792662005 1.62430069394757e-015
   endloop
endfacet
facet normal -9.23781486139244e-015 -0.562033565059429 0.827114424820768
   outer loop
      vertex 0.422568693868131 0.500476207337986 0.960000000000018
      vertex -0.0261310298887625 0.199126207337988 0.755229281767939
      vertex 0.334268417625042 0.199126207337988 0.755229281767943
   endloop
endfacet
facet normal 0.0 0.0 -1.0
   outer loop
      vertex 0.26536869386813 -0.504373792662002 2.99999999999996
      vertex 0.0427686938681353 -0.504373792662003 2.99999999999996
      vertex 0.26536869386813 0.0326262073379906 2.99999999999996
   endloop
endfacet
facet normal 0.0 0.0 -1.0
   outer loop
      vertex 0.26536869386813 0.0326262073379906 2.99999999999996
      vertex 0.0427686938681353 -0.504373792662003 2.99999999999996
      vertex 0.0427686938681353 0.0326262073379906 2.99999999999996
   endloop
endfacet
facet normal 1.0 -0.0 -0.0
   outer loop
      vertex -0.385931306131859 -0.0122237926620103 1.23149999999998
      vertex -0.385931306131859 -0.459523792662002 1.76849999999998
      vertex -0.385931306131859 -0.459523792662002 1.23149999999998
   endloop
endfacet
facet normal 0.818817193694966 0.138608508838983 0.557069191920479
   outer loop
      vertex 0.422568693868141 0.500476207337986 2.04
      vertex 0.334268417625042 0.199126207337988 2.24477071823203
      vertex 0.694068693868125 -0.0122237926620103 1.76849999999998
   endloop
endfacet
facet normal 0.690533873487524 -0.690533873487507 0.215234614160119
   outer loop
      vertex 0.0427686938681339 0.03262620733799 4.87290208184271e-015
      vertex -0.385931306131859 -0.0122237926620103 1.23149999999998
      vertex -0.11443130613186 -0.124573792662008 1.62430069394757e-015
   endloop
endfacet
facet normal -0.690533873487515 -0.690533873487517 -0.215234614160115
   outer loop
      vertex 0.26536869386813 0.0326262073379906 2.99999999999996
      vertex 0.694068693868125 -0.0122237926620103 1.76849999999998
      vertex 0.422568693868131 -0.124573792662009 2.99999999999996
   endloop
endfacet
facet normal 0.976549523065241 -2.36130125098775e-016 0.215292891199526
   outer loop
      vertex -0.385931306131859 -0.0122237926620103 1.23149999999998
      vertex -0.11443130613186 -0.347173792662005 1.62430069394757e-015
      vertex -0.11443130613186 -0.124573792662008 1.62430069394757e-015
   endloop
endfacet
facet normal 0.0 0.0 -1.0
   outer loop
      vertex 0.0427686938681353 0.0326262073379906 2.99999999999996
      vertex -0.11443130613186 -0.347173792662003 2.99999999999996
      vertex -0.11443130613186 -0.124573792662009 2.99999999999996
   endloop
endfacet
facet normal 1.0 -0.0 -0.0
   outer loop
      vertex -0.385931306131859 -0.0122237926620103 1.76849999999998
      vertex -0.385931306131859 -0.459523792662002 1.76849999999998
      vertex -0.385931306131859 -0.0122237926620103 1.23149999999998
   endloop
endfacet
facet normal 0.0 0.0 -1.0
   outer loop
      vertex 0.0427686938681353 -0.504373792662003 2.99999999999996
      vertex -0.11443130613186 -0.347173792662003 2.99999999999996
      vertex 0.0427686938681353 0.0326262073379906 2.99999999999996
   endloop
endfacet
facet normal 0.690533873487524 0.690533873487509 0.215234614160116
   outer loop
      vertex -0.11443130613186 1.57282620733797 1.62430069394757e-015
      vertex -0.385931306131854 1.46047620733797 1.23149999999998
      vertex 0.0427686938681339 1.41562620733797 4.87290208184271e-015
   endloop
endfacet
facet normal 0.690533873487509 -0.690533873487525 0.215234614160113
   outer loop
      vertex -0.385931306131859 -0.0122237926620103 1.23149999999998
      vertex 0.0427686938681339 0.03262620733799 4.87290208184271e-015
      vertex -0.0261310298887625 0.199126207337988 0.755229281767939
   endloop
endfacet
facet normal 0.690533873487513 0.690533873487521 0.215234614160112
   outer loop
      vertex -0.385931306131854 1.46047620733797 1.23149999999998
      vertex -0.0261310298887625 1.24912620733797 0.75522928176794
      vertex 0.0427686938681339 1.41562620733797 4.87290208184271e-015
   endloop
endfacet
facet normal 0.818817193694959 -0.138608508839071 0.557069191920467
   outer loop
      vertex -0.114431306131869 0.500476207337986 0.960000000000028
      vertex -0.385931306131859 -0.0122237926620103 1.23149999999998
      vertex -0.0261310298887625 0.199126207337988 0.755229281767939
   endloop
endfacet
facet normal 0.81881719369496 -0.138608508839031 -0.557069191920475
   outer loop
      vertex -0.114431306131844 0.500476207337986 2.04
      vertex -0.0261310298887625 0.199126207337988 2.24477071823203
      vertex -0.385931306131859 -0.0122237926620103 1.76849999999998
   endloop
endfacet
facet normal -0.690533873487535 -0.690533873487495 -0.215234614160123
   outer loop
      vertex 0.334268417625042 0.199126207337988 2.24477071823203
      vertex 0.694068693868125 -0.0122237926620103 1.76849999999998
      vertex 0.26536869386813 0.0326262073379906 2.99999999999996
   endloop
endfacet
facet normal -1.45938966212722e-014 1.12947754893214e-030 -1.0
   outer loop
      vertex 0.26536869386813 1.41562620733797 1.62430069394757e-015
      vertex 0.0427686938681339 1.41562620733797 4.87290208184271e-015
      vertex 0.0427686938681339 1.95262620733797 4.87290208184271e-015
   endloop
endfacet
facet normal -2.41096371026996e-014 -3.29504309784305e-030 -1.0
   outer loop
      vertex 0.422568693868128 1.57282620733797 -2.16573425859676e-015
      vertex 0.26536869386813 1.95262620733797 1.62430069394757e-015
      vertex 0.422568693868128 1.79542620733797 -2.16573425859676e-015
   endloop
endfacet
facet normal -2.41096371026996e-014 -2.83095425879477e-031 -1.0
   outer loop
      vertex 0.422568693868128 1.57282620733797 -2.16573425859676e-015
      vertex 0.26536869386813 1.41562620733797 1.62430069394757e-015
      vertex 0.26536869386813 1.95262620733797 1.62430069394757e-015
   endloop
endfacet
facet normal -0.0 1.0 -0.0
   outer loop
      vertex -0.0695813061318561 2.22412620733796 1.76849999999998
      vertex 0.377718693868138 2.22412620733796 1.23149999999998
      vertex -0.0695813061318561 2.22412620733796 1.23149999999998
   endloop
endfacet
facet normal -0.0 1.0 -0.0
   outer loop
      vertex 0.377718693868138 2.22412620733796 1.76849999999998
      vertex 0.377718693868138 2.22412620733796 1.23149999999998
      vertex -0.0695813061318561 2.22412620733796 1.76849999999998
   endloop
endfacet
facet normal 1.0 -0.0 -0.0
   outer loop
      vertex -0.385931306131854 1.90777620733797 1.76849999999998
      vertex -0.385931306131854 1.46047620733797 1.76849999999998
      vertex -0.385931306131854 1.90777620733797 1.23149999999998
   endloop
endfacet
facet normal 0.707106781186558 0.707106781186537 -0.0
   outer loop
      vertex 0.377718693868138 2.22412620733796 1.76849999999998
      vertex 0.694068693868125 1.90777620733797 1.76849999999998
      vertex 0.377718693868138 2.22412620733796 1.23149999999998
   endloop
endfacet
facet normal 0.707106781186558 0.707106781186537 5.56528030840762e-017
   outer loop
      vertex 0.377718693868138 2.22412620733796 1.23149999999998
      vertex 0.694068693868125 1.90777620733797 1.76849999999998
      vertex 0.694068693868125 1.90777620733797 1.23149999999998
   endloop
endfacet
facet normal 0.690533873487514 0.690533873487518 -0.215234614160116
   outer loop
      vertex 0.694068693868125 1.90777620733797 1.23149999999998
      vertex 0.422568693868128 1.79542620733797 -2.16573425859676e-015
      vertex 0.26536869386813 1.95262620733797 1.62430069394757e-015
   endloop
endfacet
facet normal -0.976549523065242 -2.92397681854328e-017 -0.215292891199522
   outer loop
      vertex 0.694068693868125 1.90777620733797 1.76849999999998
      vertex 0.694068693868125 1.46047620733797 1.76849999999998
      vertex 0.422568693868131 1.57282620733797 2.99999999999996
   endloop
endfacet
facet normal -0.690533873487515 -0.690533873487517 -0.215234614160115
   outer loop
      vertex 0.265368693868132 1.95262620733797 2.99999999999996
      vertex 0.694068693868125 1.90777620733797 1.76849999999998
      vertex 0.422568693868131 1.79542620733797 2.99999999999996
   endloop
endfacet
facet normal -0.976549523065242 0.0 -0.215292891199522
   outer loop
      vertex 0.694068693868125 1.90777620733797 1.76849999999998
      vertex 0.422568693868131 1.57282620733797 2.99999999999996
      vertex 0.422568693868131 1.79542620733797 2.99999999999996
   endloop
endfacet
facet normal -1.0 0.0 0.0
   outer loop
      vertex 0.694068693868125 1.90777620733797 1.76849999999998
      vertex 0.694068693868125 1.46047620733797 1.23149999999998
      vertex 0.694068693868125 1.46047620733797 1.76849999999998
   endloop
endfacet
facet normal 0.0 0.0 -1.0
   outer loop
      vertex 0.422568693868131 1.57282620733797 2.99999999999996
      vertex 0.265368693868132 1.41562620733797 2.99999999999996
      vertex 0.422568693868131 1.79542620733797 2.99999999999996
   endloop
endfacet
facet normal -1.0 0.0 0.0
   outer loop
      vertex 0.694068693868125 1.90777620733797 1.23149999999998
      vertex 0.694068693868125 1.46047620733797 1.23149999999998
      vertex 0.694068693868125 1.90777620733797 1.76849999999998
   endloop
endfacet
facet normal -0.707106781186546 0.707106781186549 5.56528030840749e-017
   outer loop
      vertex -0.0695813061318561 2.22412620733796 1.76849999999998
      vertex -0.0695813061318561 2.22412620733796 1.23149999999998
      vertex -0.385931306131854 1.90777620733797 1.23149999999998
   endloop
endfacet
facet normal 0.976549523065242 -2.92397681854329e-017 0.215292891199522
   outer loop
      vertex -0.385931306131854 1.90777620733797 1.23149999999998
      vertex -0.385931306131854 1.46047620733797 1.23149999999998
      vertex -0.11443130613186 1.57282620733797 1.62430069394757e-015
   endloop
endfacet
facet normal 0.707106781186541 0.707106781186554 -0.0
   outer loop
      vertex -0.0695813061318561 -0.775873792661999 1.76849999999998
      vertex -0.0695813061318561 -0.775873792661999 1.23149999999998
      vertex -0.385931306131859 -0.459523792662002 1.76849999999998
   endloop
endfacet
facet normal -1.0 6.42923656072019e-014 -2.76783620218836e-028
   outer loop
      vertex -1.34593130613183 0.61282620733798 1.23150000000004
      vertex -1.34593130613184 0.455626207337988 1.38870000000004
      vertex -1.34593130613184 0.455626207337989 1.61130000000004
   endloop
endfacet
facet normal 0.0 0.0 -1.0
   outer loop
      vertex 0.042768693868144 1.95262620733797 2.99999999999996
      vertex -0.11443130613186 1.57282620733797 2.99999999999996
      vertex -0.11443130613186 1.79542620733797 2.99999999999996
   endloop
endfacet
facet normal -1.0 0.0 0.0
   outer loop
      vertex -1.34593130613183 0.835426207337979 1.76850000000004
      vertex -1.34593130613183 0.61282620733798 1.23150000000004
      vertex -1.34593130613183 0.61282620733798 1.76850000000004
   endloop
endfacet
facet normal 0.0 0.0 -1.0
   outer loop
      vertex 0.265368693868132 1.41562620733797 2.99999999999996
      vertex 0.0427686938681353 1.41562620733797 2.99999999999996
      vertex 0.042768693868144 1.95262620733797 2.99999999999996
   endloop
endfacet
facet normal 0.0 0.0 -1.0
   outer loop
      vertex 0.265368693868132 1.41562620733797 2.99999999999996
      vertex 0.042768693868144 1.95262620733797 2.99999999999996
      vertex 0.265368693868132 1.95262620733797 2.99999999999996
   endloop
endfacet
facet normal 0.0 0.0 -1.0
   outer loop
      vertex 0.422568693868131 1.79542620733797 2.99999999999996
      vertex 0.265368693868132 1.41562620733797 2.99999999999996
      vertex 0.265368693868132 1.95262620733797 2.99999999999996
   endloop
endfacet
facet normal -3.30582175138285e-015 0.976549523065241 -0.215292891199523
   outer loop
      vertex 0.377718693868138 2.22412620733796 1.23149999999998
      vertex 0.26536869386813 1.95262620733797 1.62430069394757e-015
      vertex 0.0427686938681339 1.95262620733797 4.87290208184271e-015
   endloop
endfacet
facet normal 2.0665403230886e-014 3.29504309784324e-030 -1.0
   outer loop
      vertex 0.0427686938681339 1.41562620733797 4.87290208184271e-015
      vertex -0.11443130613186 1.57282620733797 1.62430069394757e-015
      vertex -0.11443130613186 1.79542620733797 1.62430069394757e-015
   endloop
endfacet
facet normal -0.557044377489897 0.138628772369295 -0.818830644870034
   outer loop
      vertex 0.898866804706588 0.289132246390059 1.68019722472374
      vertex 0.694068693868125 -0.0122237926620103 1.76849999999998
      vertex 0.422568693868141 0.500476207337986 2.04
   endloop
endfacet
facet normal -0.976549523065241 0.0 0.215292891199524
   outer loop
      vertex 0.694068693868125 1.90777620733797 1.23149999999998
      vertex 0.422568693868128 1.79542620733797 -2.16573425859676e-015
      vertex 0.422568693868128 1.57282620733797 -2.16573425859676e-015
   endloop
endfacet
facet normal -0.215234614160112 -0.690533873487515 0.690533873487519
   outer loop
      vertex 1.65406869386812 0.992626207337976 1.38869999999998
      vertex 0.898866804706588 1.1591201682859 1.31980277527624
      vertex 1.65406869386812 0.835426207337977 1.23149999999998
   endloop
endfacet
facet normal -0.690533873487524 0.690533873487508 -0.215234614160116
   outer loop
      vertex 0.0427686938681339 1.95262620733797 4.87290208184271e-015
      vertex -0.11443130613186 1.79542620733797 1.62430069394757e-015
      vertex -0.385931306131854 1.90777620733797 1.23149999999998
   endloop
endfacet
facet normal -0.0 0.976549523065242 -0.21529289119952
   outer loop
      vertex -0.0261310298887625 -0.670873792661999 2.24477071823203
      vertex 0.377718693868138 -0.775873792661999 1.76849999999998
      vertex -0.0695813061318561 -0.775873792661999 1.76849999999998
   endloop
endfacet
facet normal -2.99401994616547e-017 -0.976549523065241 -0.215292891199526
   outer loop
      vertex 0.0427686938681353 0.0326262073379906 2.99999999999996
      vertex -0.0261310298887625 0.199126207337988 2.24477071823203
      vertex 0.334268417625042 0.199126207337988 2.24477071823203
   endloop
endfacet
facet normal -0.827084710505768 0.562077291524564 -1.79336183073669e-017
   outer loop
      vertex 0.898866804706588 0.289132246390059 1.31980277527627
      vertex 0.694068693868125 -0.0122237926620103 1.23149999999998
      vertex 0.694068693868125 -0.0122237926620103 1.76849999999998
   endloop
endfacet
facet normal -0.215292891199529 -0.97654952306524 0.0
   outer loop
      vertex -0.590729416970263 0.289132246390059 1.68019722472378
      vertex -1.34593130613184 0.455626207337988 1.38870000000004
      vertex -0.590729416970263 0.289132246390059 1.31980277527627
   endloop
endfacet
facet normal -2.92397681854331e-017 0.976549523065241 0.215292891199524
   outer loop
      vertex 0.377718693868138 -0.775873792661999 1.23149999999998
      vertex 0.0427686938681339 -0.504373792662003 4.87290208184271e-015
      vertex -0.0695813061318561 -0.775873792661999 1.23149999999998
   endloop
endfacet
facet normal 0.690533873487527 -0.690533873487504 -0.215234614160119
   outer loop
      vertex 0.0427686938681353 0.0326262073379906 2.99999999999996
      vertex -0.11443130613186 -0.124573792662009 2.99999999999996
      vertex -0.385931306131859 -0.0122237926620103 1.76849999999998
   endloop
endfacet
facet normal 1.0 -0.0 -0.0
   outer loop
      vertex -0.385931306131854 1.90777620733797 1.23149999999998
      vertex -0.385931306131854 1.46047620733797 1.76849999999998
      vertex -0.385931306131854 1.46047620733797 1.23149999999998
   endloop
endfacet
facet normal -0.215234614160109 -0.690533873487526 0.690533873487509
   outer loop
      vertex -1.34593130613183 0.61282620733798 1.76850000000004
      vertex -1.34593130613184 0.455626207337989 1.61130000000004
      vertex -0.590729416970263 0.289132246390059 1.68019722472378
   endloop
endfacet
facet normal -1.45938966212722e-014 -1.69421632339821e-030 -1.0
   outer loop
      vertex 0.26536869386813 1.41562620733797 1.62430069394757e-015
      vertex 0.0427686938681339 1.95262620733797 4.87290208184271e-015
      vertex 0.26536869386813 1.95262620733797 1.62430069394757e-015
   endloop
endfacet
facet normal 2.92397681854331e-017 0.976549523065241 -0.215292891199524
   outer loop
      vertex 0.377718693868138 2.22412620733796 1.23149999999998
      vertex 0.0427686938681339 1.95262620733797 4.87290208184271e-015
      vertex -0.0695813061318561 2.22412620733796 1.23149999999998
   endloop
endfacet
facet normal -7.9636335012009e-017 -0.562033565059346 0.827114424820824
   outer loop
      vertex 0.422568693868141 0.94777620733798 2.04
      vertex 0.334268417625047 1.24912620733797 2.24477071823203
      vertex -0.0261310298887625 1.24912620733797 2.24477071823203
   endloop
endfacet
facet normal -0.690533873487514 0.690533873487519 -0.215234614160115
   outer loop
      vertex 0.422568693868131 1.57282620733797 2.99999999999996
      vertex 0.694068693868125 1.46047620733797 1.76849999999998
      vertex 0.265368693868132 1.41562620733797 2.99999999999996
   endloop
endfacet
facet normal -0.215234614160138 0.690533873487529 -0.690533873487497
   outer loop
      vertex 1.65406869386813 0.61282620733798 1.76849999999998
      vertex 1.65406869386813 0.455626207337989 1.61129999999998
      vertex 0.898866804706588 0.289132246390059 1.68019722472374
   endloop
endfacet
facet normal -0.976549523065241 0.0 0.215292891199524
   outer loop
      vertex 0.694068693868125 1.90777620733797 1.23149999999998
      vertex 0.422568693868128 1.57282620733797 -2.16573425859676e-015
      vertex 0.694068693868125 1.46047620733797 1.23149999999998
   endloop
endfacet
facet normal 0.690533873487525 0.690533873487506 -0.215234614160121
   outer loop
      vertex 0.377718693868138 2.22412620733796 1.23149999999998
      vertex 0.694068693868125 1.90777620733797 1.23149999999998
      vertex 0.26536869386813 1.95262620733797 1.62430069394757e-015
   endloop
endfacet
facet normal -0.690533873487515 0.690533873487519 -0.215234614160113
   outer loop
      vertex -0.0695813061318561 2.22412620733796 1.23149999999998
      vertex 0.0427686938681339 1.95262620733797 4.87290208184271e-015
      vertex -0.385931306131854 1.90777620733797 1.23149999999998
   endloop
endfacet
facet normal -0.827084710505774 -0.562077291524556 0.0
   outer loop
      vertex 0.694068693868125 1.46047620733797 1.76849999999998
      vertex 0.898866804706588 1.1591201682859 1.31980277527624
      vertex 0.898866804706588 1.1591201682859 1.68019722472374
   endloop
endfacet
facet normal -0.215234614160134 -0.69053387348752 -0.690533873487507
   outer loop
      vertex -1.34593130613184 0.455626207337988 1.38870000000004
      vertex -1.34593130613183 0.61282620733798 1.23150000000004
      vertex -0.590729416970263 0.289132246390059 1.31980277527627
   endloop
endfacet
facet normal -0.690533873487526 -0.690533873487506 -0.215234614160119
   outer loop
      vertex 0.377718693868138 2.22412620733796 1.76849999999998
      vertex 0.694068693868125 1.90777620733797 1.76849999999998
      vertex 0.265368693868132 1.95262620733797 2.99999999999996
   endloop
endfacet
facet normal -0.827084710505774 -0.562077291524556 0.0
   outer loop
      vertex 0.694068693868125 1.46047620733797 1.23149999999998
      vertex 0.898866804706588 1.1591201682859 1.31980277527624
      vertex 0.694068693868125 1.46047620733797 1.76849999999998
   endloop
endfacet
facet normal -0.827084710505843 0.562077291524454 7.96324911340382e-017
   outer loop
      vertex -0.385931306131854 1.46047620733797 1.76849999999998
      vertex -0.590729416970263 1.1591201682859 1.31980277527627
      vertex -0.590729416970263 1.1591201682859 1.68019722472378
   endloop
endfacet
facet normal -0.707106781186545 0.707106781186549 -0.0
   outer loop
      vertex -0.0695813061318561 2.22412620733796 1.76849999999998
      vertex -0.385931306131854 1.90777620733797 1.23149999999998
      vertex -0.385931306131854 1.90777620733797 1.76849999999998
   endloop
endfacet
facet normal -1.0 2.58388092662792e-014 3.73054783836507e-014
   outer loop
      vertex -1.34593130613184 0.992626207337964 1.38870000000004
      vertex -1.34593130613185 0.835426207337976 1.23150000000004
      vertex -1.34593130613183 0.835426207337979 1.76850000000004
   endloop
endfacet
facet normal -4.08108787309058e-015 0.976549523065241 -0.215292891199525
   outer loop
      vertex 0.26536869386813 -0.504373792662002 2.99999999999996
      vertex -0.0261310298887625 -0.670873792661999 2.24477071823203
      vertex 0.0427686938681353 -0.504373792662003 2.99999999999996
   endloop
endfacet
facet normal 0.690533873487524 0.690533873487508 0.215234614160118
   outer loop
      vertex -0.11443130613186 -0.347173792662005 1.62430069394757e-015
      vertex -0.385931306131859 -0.459523792662002 1.23149999999998
      vertex 0.0427686938681339 -0.504373792662003 4.87290208184271e-015
   endloop
endfacet
facet normal 0.69053387348751 0.690533873487522 -0.215234614160118
   outer loop
      vertex -0.11443130613186 -0.347173792662003 2.99999999999996
      vertex -0.0695813061318561 -0.775873792661999 1.76849999999998
      vertex -0.385931306131859 -0.459523792662002 1.76849999999998
   endloop
endfacet
facet normal -1.0 4.54032339328493e-014 4.54032339328472e-014
   outer loop
      vertex 1.65406869386812 0.61282620733798 1.23149999999998
      vertex 1.65406869386812 0.455626207337989 1.38869999999998
      vertex 1.65406869386813 0.455626207337989 1.61129999999998
   endloop
endfacet
facet normal -0.690533873487512 0.690533873487521 -0.215234614160115
   outer loop
      vertex 0.422568693868131 -0.347173792662003 2.99999999999996
      vertex 0.694068693868125 -0.459523792662002 1.76849999999998
      vertex 0.26536869386813 -0.504373792662002 2.99999999999996
   endloop
endfacet
facet normal 0.690533873487517 0.690533873487516 -0.215234614160114
   outer loop
      vertex -0.385931306131854 1.46047620733797 1.76849999999998
      vertex 0.0427686938681353 1.41562620733797 2.99999999999996
      vertex -0.0261310298887625 1.24912620733797 2.24477071823203
   endloop
endfacet
facet normal -0.976549523065242 -2.36130125098781e-016 -0.215292891199522
   outer loop
      vertex 0.694068693868125 -0.0122237926620103 1.76849999999998
      vertex 0.422568693868131 -0.347173792662003 2.99999999999996
      vertex 0.422568693868131 -0.124573792662009 2.99999999999996
   endloop
endfacet
facet normal 0.818817193694963 0.138608508839028 -0.557069191920471
   outer loop
      vertex -0.385931306131854 1.46047620733797 1.76849999999998
      vertex -0.0261310298887625 1.24912620733797 2.24477071823203
      vertex -0.114431306131844 0.94777620733798 2.04
   endloop
endfacet
facet normal 1.56964918195789e-016 0.97654952306524 -0.215292891199528
   outer loop
      vertex 0.265368693868132 1.41562620733797 2.99999999999996
      vertex -0.0261310298887625 1.24912620733797 2.24477071823203
      vertex 0.0427686938681353 1.41562620733797 2.99999999999996
   endloop
endfacet
facet normal -3.1392983639157e-015 0.976549523065241 -0.215292891199524
   outer loop
      vertex 0.334268417625042 0.199126207337988 0.755229281767943
      vertex 0.26536869386813 0.03262620733799 1.62430069394757e-015
      vertex 0.0427686938681339 0.03262620733799 4.87290208184271e-015
   endloop
endfacet
facet normal -0.215292891199531 -0.97654952306524 2.99432019834707e-017
   outer loop
      vertex 0.898866804706588 1.1591201682859 1.68019722472374
      vertex 0.898866804706588 1.1591201682859 1.31980277527624
      vertex 1.65406869386812 0.992626207337976 1.38869999999998
   endloop
endfacet
facet normal -1.79349814129422e-017 0.562033565059341 0.827114424820827
   outer loop
      vertex 0.422568693868141 0.500476207337986 2.04
      vertex -0.114431306131844 0.500476207337986 2.04
      vertex -0.0261310298887625 0.199126207337988 2.24477071823203
   endloop
endfacet
facet normal 0.976549523065241 5.84795363708663e-017 -0.215292891199526
   outer loop
      vertex -0.385931306131859 -0.0122237926620103 1.76849999999998
      vertex -0.11443130613186 -0.347173792662003 2.99999999999996
      vertex -0.385931306131859 -0.459523792662002 1.76849999999998
   endloop
endfacet
facet normal -0.215234614160098 -0.690533873487508 0.69053387348753
   outer loop
      vertex -0.114431306131844 0.500476207337986 2.04
      vertex -1.34593130613183 0.61282620733798 1.76850000000004
      vertex -0.590729416970263 0.289132246390059 1.68019722472378
   endloop
endfacet
facet normal 2.0665403230886e-014 -8.49286277638479e-031 -1.0
   outer loop
      vertex 0.0427686938681339 1.41562620733797 4.87290208184271e-015
      vertex -0.11443130613186 1.79542620733797 1.62430069394757e-015
      vertex 0.0427686938681339 1.95262620733797 4.87290208184271e-015
   endloop
endfacet
facet normal -0.690533873487526 0.690533873487505 0.21523461416012
   outer loop
      vertex 0.694068693868125 -0.459523792662002 1.23149999999998
      vertex 0.26536869386813 -0.504373792662003 1.62430069394757e-015
      vertex 0.377718693868138 -0.775873792661999 1.23149999999998
   endloop
endfacet
facet normal 0.0 0.0 -1.0
   outer loop
      vertex 0.042768693868144 1.95262620733797 2.99999999999996
      vertex 0.0427686938681353 1.41562620733797 2.99999999999996
      vertex -0.11443130613186 1.57282620733797 2.99999999999996
   endloop
endfacet
facet normal -0.976549523065241 2.36130125098774e-016 0.215292891199524
   outer loop
      vertex 0.694068693868125 -0.0122237926620103 1.23149999999998
      vertex 0.422568693868128 -0.124573792662008 -2.16573425859676e-015
      vertex 0.422568693868128 -0.347173792662005 -2.16573425859676e-015
   endloop
endfacet
facet normal 0.827084710505844 0.562077291524453 -7.96324911340416e-017
   outer loop
      vertex -0.590729416970263 0.289132246390059 1.68019722472378
      vertex -0.385931306131859 -0.0122237926620103 1.76849999999998
      vertex -0.590729416970263 0.289132246390059 1.31980277527627
   endloop
endfacet
facet normal -0.215292891199533 0.976549523065239 -0.0
   outer loop
      vertex -0.590729416970263 1.1591201682859 1.68019722472378
      vertex -1.34593130613184 0.992626207337964 1.38870000000004
      vertex -1.34593130613184 0.992626207337964 1.61130000000004
   endloop
endfacet
facet normal -0.215234614160128 -0.690533873487511 -0.690533873487517
   outer loop
      vertex -0.114431306131869 0.500476207337986 0.960000000000028
      vertex -0.590729416970263 0.289132246390059 1.31980277527627
      vertex -1.34593130613183 0.61282620733798 1.23150000000004
   endloop
endfacet
facet normal 0.557044377489983 0.138628772369117 0.818830644870005
   outer loop
      vertex -0.114431306131869 0.500476207337986 0.960000000000028
      vertex -0.590729416970263 0.289132246390059 1.31980277527627
      vertex -0.385931306131859 -0.0122237926620103 1.23149999999998
   endloop
endfacet
facet normal -0.215234614160101 0.690533873487519 0.690533873487518
   outer loop
      vertex -0.114431306131844 0.94777620733798 2.04
      vertex -0.590729416970263 1.1591201682859 1.68019722472378
      vertex -1.34593130613183 0.835426207337979 1.76850000000004
   endloop
endfacet
facet normal 0.976549523065242 -0.0 -0.215292891199522
   outer loop
      vertex -0.385931306131854 1.90777620733797 1.76849999999998
      vertex -0.11443130613186 1.57282620733797 2.99999999999996
      vertex -0.385931306131854 1.46047620733797 1.76849999999998
   endloop
endfacet
facet normal 0.690533873487528 0.690533873487506 -0.215234614160111
   outer loop
      vertex -0.11443130613186 -0.347173792662003 2.99999999999996
      vertex -0.0261310298887625 -0.670873792661999 2.24477071823203
      vertex -0.0695813061318561 -0.775873792661999 1.76849999999998
   endloop
endfacet
facet normal -1.0 -1.88207818872481e-014 1.88207818872473e-014
   outer loop
      vertex 1.65406869386812 0.61282620733798 1.23149999999998
      vertex 1.65406869386813 0.455626207337989 1.61129999999998
      vertex 1.65406869386813 0.61282620733798 1.76849999999998
   endloop
endfacet
facet normal -1.0 4.51791019572853e-030 1.88207818872473e-014
   outer loop
      vertex 1.65406869386812 0.835426207337977 1.23149999999998
      vertex 1.65406869386813 0.61282620733798 1.76849999999998
      vertex 1.65406869386813 0.835426207337977 1.76849999999998
   endloop
endfacet
facet normal 0.690533873487528 0.690533873487506 -0.215234614160111
   outer loop
      vertex -0.11443130613186 -0.347173792662003 2.99999999999996
      vertex 0.0427686938681353 -0.504373792662003 2.99999999999996
      vertex -0.0261310298887625 -0.670873792661999 2.24477071823203
   endloop
endfacet
facet normal 0.690533873487505 -0.690533873487528 -0.215234614160114
   outer loop
      vertex -0.11443130613186 1.79542620733797 2.99999999999996
      vertex -0.385931306131854 1.90777620733797 1.76849999999998
      vertex 0.042768693868144 1.95262620733797 2.99999999999996
   endloop
endfacet
facet normal -5.16840077174903e-015 0.976549523065241 -0.215292891199525
   outer loop
      vertex 0.26536869386813 -0.504373792662002 2.99999999999996
      vertex 0.377718693868138 -0.775873792661999 1.76849999999998
      vertex -0.0261310298887625 -0.670873792661999 2.24477071823203
   endloop
endfacet
facet normal 0.707106781186541 0.707106781186554 -0.0
   outer loop
      vertex -0.385931306131859 -0.459523792662002 1.76849999999998
      vertex -0.0695813061318561 -0.775873792661999 1.23149999999998
      vertex -0.385931306131859 -0.459523792662002 1.23149999999998
   endloop
endfacet
facet normal -0.0 1.0 -0.0
   outer loop
      vertex -0.0695813061318561 -0.775873792661999 1.76849999999998
      vertex 0.377718693868138 -0.775873792661999 1.23149999999998
      vertex -0.0695813061318561 -0.775873792661999 1.23149999999998
   endloop
endfacet
facet normal -0.0 1.0 -0.0
   outer loop
      vertex 0.377718693868138 -0.775873792661999 1.76849999999998
      vertex 0.377718693868138 -0.775873792661999 1.23149999999998
      vertex -0.0695813061318561 -0.775873792661999 1.76849999999998
   endloop
endfacet
facet normal 3.06969162628408e-015 0.976549523065241 0.215292891199523
   outer loop
      vertex 0.377718693868138 -0.775873792661999 1.23149999999998
      vertex 0.26536869386813 -0.504373792662003 1.62430069394757e-015
      vertex 0.0427686938681339 -0.504373792662003 4.87290208184271e-015
   endloop
endfacet
facet normal 0.69053387348751 0.690533873487523 0.215234614160113
   outer loop
      vertex -0.0695813061318561 -0.775873792661999 1.23149999999998
      vertex 0.0427686938681339 -0.504373792662003 4.87290208184271e-015
      vertex -0.385931306131859 -0.459523792662002 1.23149999999998
   endloop
endfacet
facet normal -0.690533873487526 0.690533873487504 -0.215234614160121
   outer loop
      vertex 0.694068693868125 -0.459523792662002 1.76849999999998
      vertex 0.377718693868138 -0.775873792661999 1.76849999999998
      vertex 0.26536869386813 -0.504373792662002 2.99999999999996
   endloop
endfacet
facet normal -0.976549523065242 0.0 -0.215292891199522
   outer loop
      vertex 0.694068693868125 -0.0122237926620103 1.76849999999998
      vertex 0.694068693868125 -0.459523792662002 1.76849999999998
      vertex 0.422568693868131 -0.347173792662003 2.99999999999996
   endloop
endfacet
facet normal -0.707106781186559 0.707106781186536 0.0
   outer loop
      vertex 0.694068693868125 -0.459523792662002 1.76849999999998
      vertex 0.377718693868138 -0.775873792661999 1.23149999999998
      vertex 0.377718693868138 -0.775873792661999 1.76849999999998
   endloop
endfacet
facet normal -0.707106781186559 0.707106781186536 0.0
   outer loop
      vertex 0.694068693868125 -0.459523792662002 1.23149999999998
      vertex 0.377718693868138 -0.775873792661999 1.23149999999998
      vertex 0.694068693868125 -0.459523792662002 1.76849999999998
   endloop
endfacet
facet normal -1.0 0.0 0.0
   outer loop
      vertex 0.694068693868125 -0.0122237926620103 1.76849999999998
      vertex 0.694068693868125 -0.459523792662002 1.23149999999998
      vertex 0.694068693868125 -0.459523792662002 1.76849999999998
   endloop
endfacet
facet normal -1.0 0.0 0.0
   outer loop
      vertex 0.694068693868125 -0.0122237926620103 1.23149999999998
      vertex 0.694068693868125 -0.459523792662002 1.23149999999998
      vertex 0.694068693868125 -0.0122237926620103 1.76849999999998
   endloop
endfacet
facet normal -0.690533873487514 0.690533873487519 0.215234614160115
   outer loop
      vertex 0.694068693868125 -0.459523792662002 1.23149999999998
      vertex 0.422568693868128 -0.347173792662005 -2.16573425859676e-015
      vertex 0.26536869386813 -0.504373792662003 1.62430069394757e-015
   endloop
endfacet
facet normal -0.976549523065241 0.0 0.215292891199524
   outer loop
      vertex 0.694068693868125 -0.0122237926620103 1.23149999999998
      vertex 0.422568693868128 -0.347173792662005 -2.16573425859676e-015
      vertex 0.694068693868125 -0.459523792662002 1.23149999999998
   endloop
endfacet
facet normal 2.33533555800904e-015 0.976549523065241 -0.215292891199526
   outer loop
      vertex 0.334268417625042 0.199126207337988 0.755229281767943
      vertex 0.0427686938681339 0.03262620733799 4.87290208184271e-015
      vertex -0.0261310298887625 0.199126207337988 0.755229281767939
   endloop
endfacet
facet normal -0.2152928911995 -0.0 0.976549523065246
   outer loop
      vertex -0.114431306131844 0.500476207337986 2.04
      vertex -1.34593130613183 0.835426207337979 1.76850000000004
      vertex -1.34593130613183 0.61282620733798 1.76850000000004
   endloop
endfacet
facet normal 0.976549523065241 -2.36130125098781e-016 -0.215292891199526
   outer loop
      vertex -0.385931306131859 -0.0122237926620103 1.76849999999998
      vertex -0.11443130613186 -0.124573792662009 2.99999999999996
      vertex -0.11443130613186 -0.347173792662003 2.99999999999996
   endloop
endfacet
facet normal -0.2152928911995 -2.92397681854325e-017 0.976549523065246
   outer loop
      vertex 1.65406869386812 0.61282620733798 1.23149999999998
      vertex 0.422568693868131 0.947776207337982 0.960000000000018
      vertex 0.422568693868131 0.500476207337986 0.960000000000018
   endloop
endfacet
facet normal -0.215234614160127 -0.690533873487512 -0.690533873487517
   outer loop
      vertex 1.65406869386813 0.835426207337977 1.76849999999998
      vertex 0.898866804706588 1.1591201682859 1.68019722472374
      vertex 1.65406869386813 0.992626207337976 1.61129999999998
   endloop
endfacet
facet normal -0.2152928911995 -2.92397681854327e-017 0.976549523065246
   outer loop
      vertex -0.114431306131844 0.94777620733798 2.04
      vertex -1.34593130613183 0.835426207337979 1.76850000000004
      vertex -0.114431306131844 0.500476207337986 2.04
   endloop
endfacet
facet normal -0.557044377489982 0.138628772369123 -0.818830644870005
   outer loop
      vertex -0.114431306131869 0.947776207337978 0.960000000000028
      vertex -0.590729416970263 1.1591201682859 1.31980277527627
      vertex -0.385931306131854 1.46047620733797 1.23149999999998
   endloop
endfacet
facet normal -0.215234614160133 -0.690533873487523 -0.690533873487504
   outer loop
      vertex 0.422568693868141 0.94777620733798 2.04
      vertex 0.898866804706588 1.1591201682859 1.68019722472374
      vertex 1.65406869386813 0.835426207337977 1.76849999999998
   endloop
endfacet
facet normal -0.557044377489879 0.138628772369285 0.818830644870047
   outer loop
      vertex -0.114431306131844 0.94777620733798 2.04
      vertex -0.385931306131854 1.46047620733797 1.76849999999998
      vertex -0.590729416970263 1.1591201682859 1.68019722472378
   endloop
endfacet
facet normal -0.827084710505843 0.562077291524454 -1.79336183073677e-017
   outer loop
      vertex -0.385931306131854 1.46047620733797 1.23149999999998
      vertex -0.590729416970263 1.1591201682859 1.31980277527627
      vertex -0.385931306131854 1.46047620733797 1.76849999999998
   endloop
endfacet
facet normal -0.215234614160112 0.690533873487538 0.690533873487495
   outer loop
      vertex -1.34593130613183 0.835426207337979 1.76850000000004
      vertex -0.590729416970263 1.1591201682859 1.68019722472378
      vertex -1.34593130613184 0.992626207337964 1.61130000000004
   endloop
endfacet
facet normal -0.215292891199532 0.976549523065239 -2.99432019834651e-017
   outer loop
      vertex -0.590729416970263 1.1591201682859 1.68019722472378
      vertex -0.590729416970263 1.1591201682859 1.31980277527627
      vertex -1.34593130613184 0.992626207337964 1.38870000000004
   endloop
endfacet
facet normal -0.557044377489876 -0.138628772369216 0.818830644870061
   outer loop
      vertex 0.898866804706588 1.1591201682859 1.31980277527624
      vertex 0.694068693868125 1.46047620733797 1.23149999999998
      vertex 0.422568693868131 0.947776207337982 0.960000000000018
   endloop
endfacet
facet normal -0.215234614160105 -0.690533873487502 0.690533873487533
   outer loop
      vertex 1.65406869386812 0.835426207337977 1.23149999999998
      vertex 0.898866804706588 1.1591201682859 1.31980277527624
      vertex 0.422568693868131 0.947776207337982 0.960000000000018
   endloop
endfacet
facet normal 0.557044377489899 0.138628772369295 0.818830644870032
   outer loop
      vertex 0.898866804706588 1.1591201682859 1.68019722472374
      vertex 0.694068693868125 1.46047620733797 1.76849999999998
      vertex 0.422568693868141 0.94777620733798 2.04
   endloop
endfacet
facet normal -0.215234614160129 0.690533873487514 -0.690533873487514
   outer loop
      vertex 1.65406869386813 0.61282620733798 1.76849999999998
      vertex 0.898866804706588 0.289132246390059 1.68019722472374
      vertex 0.422568693868141 0.500476207337986 2.04
   endloop
endfacet
facet normal -0.827084710505768 0.562077291524564 7.96324911340521e-017
   outer loop
      vertex 0.898866804706588 0.289132246390059 1.31980277527627
      vertex 0.694068693868125 -0.0122237926620103 1.76849999999998
      vertex 0.898866804706588 0.289132246390059 1.68019722472374
   endloop
endfacet
facet normal -0.557044377489923 0.138628772369176 0.818830644870036
   outer loop
      vertex 0.898866804706588 0.289132246390059 1.31980277527627
      vertex 0.422568693868131 0.500476207337986 0.960000000000018
      vertex 0.694068693868125 -0.0122237926620103 1.23149999999998
   endloop
endfacet
facet normal -0.21529289119954 0.976549523065238 1.00464835349445e-014
   outer loop
      vertex 0.898866804706588 0.289132246390059 1.68019722472374
      vertex 1.65406869386813 0.455626207337989 1.61129999999998
      vertex 1.65406869386812 0.455626207337989 1.38869999999998
   endloop
endfacet
facet normal -0.215292891199543 0.976549523065237 2.99432019834756e-017
   outer loop
      vertex 0.898866804706588 0.289132246390059 1.68019722472374
      vertex 1.65406869386812 0.455626207337989 1.38869999999998
      vertex 0.898866804706588 0.289132246390059 1.31980277527627
   endloop
endfacet
facet normal -0.215234614160139 0.690533873487542 -0.690533873487484
   outer loop
      vertex -1.34593130613184 0.992626207337964 1.38870000000004
      vertex -0.590729416970263 1.1591201682859 1.31980277527627
      vertex -1.34593130613185 0.835426207337976 1.23150000000004
   endloop
endfacet
facet normal -0.215234614160128 0.690533873487522 -0.690533873487507
   outer loop
      vertex -0.590729416970263 1.1591201682859 1.31980277527627
      vertex -0.114431306131869 0.947776207337978 0.960000000000028
      vertex -1.34593130613185 0.835426207337976 1.23150000000004
   endloop
endfacet
facet normal 0.557044377489879 0.138628772369279 -0.818830644870049
   outer loop
      vertex -0.114431306131844 0.500476207337986 2.04
      vertex -0.385931306131859 -0.0122237926620103 1.76849999999998
      vertex -0.590729416970263 0.289132246390059 1.68019722472378
   endloop
endfacet
facet normal -0.21529289119953 -0.97654952306524 4.39533654653781e-015
   outer loop
      vertex -0.590729416970263 0.289132246390059 1.68019722472378
      vertex -1.34593130613184 0.455626207337989 1.61130000000004
      vertex -1.34593130613184 0.455626207337988 1.38870000000004
   endloop
endfacet
facet normal -0.0 0.562033565059341 0.827114424820827
   outer loop
      vertex 0.422568693868141 0.500476207337986 2.04
      vertex -0.0261310298887625 0.199126207337988 2.24477071823203
      vertex 0.334268417625042 0.199126207337988 2.24477071823203
   endloop
endfacet
facet normal 0.0 -0.976549523065241 -0.215292891199527
   outer loop
      vertex 0.0427686938681353 0.0326262073379906 2.99999999999996
      vertex 0.334268417625042 0.199126207337988 2.24477071823203
      vertex 0.26536869386813 0.0326262073379906 2.99999999999996
   endloop
endfacet
facet normal -0.215292891199527 -0.97654952306524 9.88950722971103e-015
   outer loop
      vertex 0.898866804706588 1.1591201682859 1.68019722472374
      vertex 1.65406869386812 0.992626207337976 1.38869999999998
      vertex 1.65406869386813 0.992626207337976 1.61129999999998
   endloop
endfacet
facet normal 0.81881719369497 -0.138608508838991 0.55706919192047
   outer loop
      vertex 0.694068693868125 1.46047620733797 1.76849999999998
      vertex 0.334268417625047 1.24912620733797 2.24477071823203
      vertex 0.422568693868141 0.94777620733798 2.04
   endloop
endfacet
facet normal -0.690533873487542 0.690533873487487 -0.215234614160126
   outer loop
      vertex 0.694068693868125 1.46047620733797 1.76849999999998
      vertex 0.334268417625047 1.24912620733797 2.24477071823203
      vertex 0.265368693868132 1.41562620733797 2.99999999999996
   endloop
endfacet
facet normal -0.0 -0.562033565059346 0.827114424820824
   outer loop
      vertex 0.422568693868141 0.94777620733798 2.04
      vertex -0.0261310298887625 1.24912620733797 2.24477071823203
      vertex -0.114431306131844 0.94777620733798 2.04
   endloop
endfacet
facet normal -2.99401994616539e-017 0.97654952306524 -0.215292891199528
   outer loop
      vertex 0.265368693868132 1.41562620733797 2.99999999999996
      vertex 0.334268417625047 1.24912620733797 2.24477071823203
      vertex -0.0261310298887625 1.24912620733797 2.24477071823203
   endloop
endfacet
facet normal 0.690533873487523 0.69053387348751 -0.215234614160116
   outer loop
      vertex -0.11443130613186 1.57282620733797 2.99999999999996
      vertex 0.0427686938681353 1.41562620733797 2.99999999999996
      vertex -0.385931306131854 1.46047620733797 1.76849999999998
   endloop
endfacet
facet normal -1.0 -6.4292365607205e-014 0.0
   outer loop
      vertex -1.34593130613184 0.992626207337964 1.38870000000004
      vertex -1.34593130613183 0.835426207337979 1.76850000000004
      vertex -1.34593130613184 0.992626207337964 1.61130000000004
   endloop
endfacet
facet normal -1.0 -8.99956958311801e-014 3.73054783836514e-014
   outer loop
      vertex -1.34593130613183 0.835426207337979 1.76850000000004
      vertex -1.34593130613185 0.835426207337976 1.23150000000004
      vertex -1.34593130613183 0.61282620733798 1.23150000000004
   endloop
endfacet
facet normal -1.0 6.42923656072026e-014 0.0
   outer loop
      vertex -1.34593130613183 0.61282620733798 1.23150000000004
      vertex -1.34593130613184 0.455626207337989 1.61130000000004
      vertex -1.34593130613183 0.61282620733798 1.76850000000004
   endloop
endfacet
facet normal 0.690533873487512 -0.690533873487521 -0.215234614160114
   outer loop
      vertex 0.0427686938681353 0.0326262073379906 2.99999999999996
      vertex -0.385931306131859 -0.0122237926620103 1.76849999999998
      vertex -0.0261310298887625 0.199126207337988 2.24477071823203
   endloop
endfacet
facet normal -1.0 4.5403233932847e-014 4.54032339328473e-014
   outer loop
      vertex 1.65406869386812 0.992626207337976 1.38869999999998
      vertex 1.65406869386813 0.835426207337977 1.76849999999998
      vertex 1.65406869386813 0.992626207337976 1.61129999999998
   endloop
endfacet
facet normal -1.0 4.51791019572853e-030 1.88207818872473e-014
   outer loop
      vertex 1.65406869386812 0.835426207337977 1.23149999999998
      vertex 1.65406869386812 0.61282620733798 1.23149999999998
      vertex 1.65406869386813 0.61282620733798 1.76849999999998
   endloop
endfacet
facet normal -0.215292891199542 2.92397681854339e-017 -0.976549523065237
   outer loop
      vertex -0.114431306131869 0.500476207337986 0.960000000000028
      vertex -1.34593130613183 0.61282620733798 1.23150000000004
      vertex -0.114431306131869 0.947776207337978 0.960000000000028
   endloop
endfacet
facet normal -0.215292891199537 -1.91265401330005e-014 -0.976549523065238
   outer loop
      vertex -0.114431306131869 0.947776207337978 0.960000000000028
      vertex -1.34593130613183 0.61282620733798 1.23150000000004
      vertex -1.34593130613185 0.835426207337976 1.23150000000004
   endloop
endfacet
facet normal -0.215234614160096 0.690533873487533 0.690533873487506
   outer loop
      vertex 0.898866804706588 0.289132246390059 1.31980277527627
      vertex 1.65406869386812 0.61282620733798 1.23149999999998
      vertex 0.422568693868131 0.500476207337986 0.960000000000018
   endloop
endfacet
facet normal -1.0 -1.88207818872472e-014 1.88207818872473e-014
   outer loop
      vertex 1.65406869386812 0.992626207337976 1.38869999999998
      vertex 1.65406869386812 0.835426207337977 1.23149999999998
      vertex 1.65406869386813 0.835426207337977 1.76849999999998
   endloop
endfacet
facet normal -0.0 -0.0 1.0
   outer loop
      vertex 0.422568693868141 0.94777620733798 2.04
      vertex -0.114431306131844 0.94777620733798 2.04
      vertex 0.422568693868141 0.500476207337986 2.04
   endloop
endfacet
facet normal -0.0 -0.0 1.0
   outer loop
      vertex 0.422568693868141 0.500476207337986 2.04
      vertex -0.114431306131844 0.94777620733798 2.04
      vertex -0.114431306131844 0.500476207337986 2.04
   endloop
endfacet
facet normal -0.215234614160097 0.690533873487535 0.690533873487503
   outer loop
      vertex 1.65406869386812 0.455626207337989 1.38869999999998
      vertex 1.65406869386812 0.61282620733798 1.23149999999998
      vertex 0.898866804706588 0.289132246390059 1.31980277527627
   endloop
endfacet
facet normal -1.84846964964034e-014 -2.23779404259312e-030 -1.0
   outer loop
      vertex 0.422568693868131 0.500476207337986 0.960000000000018
      vertex -0.114431306131869 0.500476207337986 0.960000000000028
      vertex 0.422568693868131 0.947776207337982 0.960000000000018
   endloop
endfacet
facet normal -1.84846964964034e-014 0.0 -1.0
   outer loop
      vertex 0.422568693868131 0.947776207337982 0.960000000000018
      vertex -0.114431306131869 0.500476207337986 0.960000000000028
      vertex -0.114431306131869 0.947776207337978 0.960000000000028
   endloop
endfacet
facet normal -0.818817193694962 -0.138608508839067 -0.557069191920463
   outer loop
      vertex -0.385931306131854 1.46047620733797 1.23149999999998
      vertex -0.0261310298887625 1.24912620733797 0.75522928176794
      vertex -0.114431306131869 0.947776207337978 0.960000000000028
   endloop
endfacet
facet normal -0.2152928911995 4.72260250197547e-016 0.976549523065246
   outer loop
      vertex 1.65406869386812 0.835426207337977 1.23149999999998
      vertex 0.422568693868131 0.947776207337982 0.960000000000018
      vertex 1.65406869386812 0.61282620733798 1.23149999999998
   endloop
endfacet
endsolid no_name
