solid OBJECT
  facet normal 0.34936780666505218 0.1119294987045405 -0.93027626164801225
    outer loop
      vertex 0 0 0
      vertex 0.23911181092262268 0.1707366406917572 0.1103418841958046
      vertex 0.29381194710731506 0 0.1103418841958046
    endloop
  endfacet
  facet normal 0.21547974720887758 0.29900232341982935 -0.92960534052486055
    outer loop
      vertex 0 0 0
      vertex 0.086325451731681824 0.28084403276443481 0.1103418841958046
      vertex 0.23911181092262268 0.1707366406917572 0.1103418841958046
    endloop
  endfacet
  facet normal 0 0.36568194306213592 -0.93073987586129614
    outer loop
      vertex 0 0 0
      vertex -0.086325451731681824 0.28084403276443481 0.1103418841958046
      vertex 0.086325451731681824 0.28084403276443481 0.1103418841958046
    endloop
  endfacet
  facet normal -0.21547974720887758 0.29900232341982935 -0.92960534052486055
    outer loop
      vertex 0 0 0
      vertex -0.23911181092262268 0.1707366406917572 0.1103418841958046
      vertex -0.086325451731681824 0.28084403276443481 0.1103418841958046
    endloop
  endfacet
  facet normal -0.34936780666505218 0.1119294987045405 -0.93027626164801225
    outer loop
      vertex 0 0 0
      vertex -0.29381194710731506 0 0.1103418841958046
      vertex -0.23911181092262268 0.1707366406917572 0.1103418841958046
    endloop
  endfacet
  facet normal -0.34936780666505218 -0.1119294987045405 -0.93027626164801225
    outer loop
      vertex 0 0 0
      vertex -0.23911181092262268 -0.1707366406917572 0.1103418841958046
      vertex -0.29381194710731506 0 0.1103418841958046
    endloop
  endfacet
  facet normal -0.21547974720887758 -0.29900232341982935 -0.92960534052486055
    outer loop
      vertex 0 0 0
      vertex -0.086325451731681824 -0.28084403276443481 0.1103418841958046
      vertex -0.23911181092262268 -0.1707366406917572 0.1103418841958046
    endloop
  endfacet
  facet normal 0 -0.36568194306213592 -0.93073987586129614
    outer loop
      vertex 0 0 0
      vertex 0.086325451731681824 -0.28084403276443481 0.1103418841958046
      vertex -0.086325451731681824 -0.28084403276443481 0.1103418841958046
    endloop
  endfacet
  facet normal 0.21547974720887758 -0.29900232341982935 -0.92960534052486055
    outer loop
      vertex 0 0 0
      vertex 0.23911181092262268 -0.1707366406917572 0.1103418841958046
      vertex 0.086325451731681824 -0.28084403276443481 0.1103418841958046
    endloop
  endfacet
  facet normal 0.34936780666505218 -0.1119294987045405 -0.93027626164801225
    outer loop
      vertex 0 0 0
      vertex 0.29381194710731506 0 0.1103418841958046
      vertex 0.23911181092262268 -0.1707366406917572 0.1103418841958046
    endloop
  endfacet
  facet normal 0.7543694945212841 0.24168282752141521 -0.61034095112236741
    outer loop
      vertex 0.29381194710731506 0 0.1103418841958046
      vertex 0.23911181092262268 0.1707366406917572 0.1103418841958046
      vertex 0.47292128205299377 0.33768719434738159 0.46543490886688232
    endloop
  endfacet
  facet normal 0.75436950581748619 0.24168281292583088 -0.61034094294004204
    outer loop
      vertex 0.29381194710731506 0 0.1103418841958046
      vertex 0.47292128205299377 0.33768719434738159 0.46543490886688232
      vertex 0.58110857009887695 0 0.46543490886688232
    endloop
  endfacet
  facet normal 0.46404918050057231 0.64392029853384958 -0.60829680848482615
    outer loop
      vertex 0.23911181092262268 0.1707366406917572 0.1103418841958046
      vertex 0.086325451731681824 0.28084403276443481 0.1103418841958046
      vertex 0.1707366406917572 0.55546033382415771 0.46543490886688232
    endloop
  endfacet
  facet normal 0.46404920771295372 0.64392029128853712 -0.60829679539503201
    outer loop
      vertex 0.23911181092262268 0.1707366406917572 0.1103418841958046
      vertex 0.1707366406917572 0.55546033382415771 0.46543490886688232
      vertex 0.47292128205299377 0.33768719434738159 0.46543490886688232
    endloop
  endfacet
  facet normal 0 0.79104109464267336 -0.61176301505282349
    outer loop
      vertex 0.086325451731681824 0.28084403276443481 0.1103418841958046
      vertex -0.086325451731681824 0.28084403276443481 0.1103418841958046
      vertex -0.1707366406917572 0.55546033382415771 0.46543490886688232
    endloop
  endfacet
  facet normal -0 0.79104109464267336 -0.61176301505282349
    outer loop
      vertex 0.086325451731681824 0.28084403276443481 0.1103418841958046
      vertex -0.1707366406917572 0.55546033382415771 0.46543490886688232
      vertex 0.1707366406917572 0.55546033382415771 0.46543490886688232
    endloop
  endfacet
  facet normal -0.46404918829183267 0.64392030934509736 -0.60829679109675183
    outer loop
      vertex -0.086325451731681824 0.28084403276443481 0.1103418841958046
      vertex -0.23911181092262268 0.1707366406917572 0.1103418841958046
      vertex -0.47292128205299377 0.33768719434738159 0.46543490886688232
    endloop
  endfacet
  facet normal -0.46404920377364595 0.64392028582230598 -0.60829680418654608
    outer loop
      vertex -0.086325451731681824 0.28084403276443481 0.1103418841958046
      vertex -0.47292128205299377 0.33768719434738159 0.46543490886688232
      vertex -0.1707366406917572 0.55546033382415771 0.46543490886688232
    endloop
  endfacet
  facet normal -0.75436950249662837 0.2416828300765341 -0.6103409402532215
    outer loop
      vertex -0.23911181092262268 0.1707366406917572 0.1103418841958046
      vertex -0.29381194710731506 0 0.1103418841958046
      vertex -0.58110857009887695 0 0.46543490886688232
    endloop
  endfacet
  facet normal -0.75436950178510487 0.2416828116339477 -0.61034094843554643
    outer loop
      vertex -0.23911181092262268 0.1707366406917572 0.1103418841958046
      vertex -0.58110857009887695 0 0.46543490886688232
      vertex -0.47292128205299377 0.33768719434738159 0.46543490886688232
    endloop
  endfacet
  facet normal -0.7543694945212841 -0.24168282752141521 -0.61034095112236741
    outer loop
      vertex -0.29381194710731506 0 0.1103418841958046
      vertex -0.23911181092262268 -0.1707366406917572 0.1103418841958046
      vertex -0.47292128205299377 -0.33768719434738159 0.46543490886688232
    endloop
  endfacet
  facet normal -0.75436950581748619 -0.24168281292583088 -0.61034094294004204
    outer loop
      vertex -0.29381194710731506 0 0.1103418841958046
      vertex -0.47292128205299377 -0.33768719434738159 0.46543490886688232
      vertex -0.58110857009887695 0 0.46543490886688232
    endloop
  endfacet
  facet normal -0.46404918050057231 -0.64392029853384958 -0.60829680848482615
    outer loop
      vertex -0.23911181092262268 -0.1707366406917572 0.1103418841958046
      vertex -0.086325451731681824 -0.28084403276443481 0.1103418841958046
      vertex -0.1707366406917572 -0.55546033382415771 0.46543490886688232
    endloop
  endfacet
  facet normal -0.46404920771295372 -0.64392029128853712 -0.60829679539503201
    outer loop
      vertex -0.23911181092262268 -0.1707366406917572 0.1103418841958046
      vertex -0.1707366406917572 -0.55546033382415771 0.46543490886688232
      vertex -0.47292128205299377 -0.33768719434738159 0.46543490886688232
    endloop
  endfacet
  facet normal -0 -0.79104109464267336 -0.61176301505282349
    outer loop
      vertex -0.086325451731681824 -0.28084403276443481 0.1103418841958046
      vertex 0.086325451731681824 -0.28084403276443481 0.1103418841958046
      vertex 0.1707366406917572 -0.55546033382415771 0.46543490886688232
    endloop
  endfacet
  facet normal 0 -0.79104109464267336 -0.61176301505282349
    outer loop
      vertex -0.086325451731681824 -0.28084403276443481 0.1103418841958046
      vertex 0.1707366406917572 -0.55546033382415771 0.46543490886688232
      vertex -0.1707366406917572 -0.55546033382415771 0.46543490886688232
    endloop
  endfacet
  facet normal 0.46404918829183267 -0.64392030934509736 -0.60829679109675183
    outer loop
      vertex 0.086325451731681824 -0.28084403276443481 0.1103418841958046
      vertex 0.23911181092262268 -0.1707366406917572 0.1103418841958046
      vertex 0.47292128205299377 -0.33768719434738159 0.46543490886688232
    endloop
  endfacet
  facet normal 0.46404920377364595 -0.64392028582230598 -0.60829680418654608
    outer loop
      vertex 0.086325451731681824 -0.28084403276443481 0.1103418841958046
      vertex 0.47292128205299377 -0.33768719434738159 0.46543490886688232
      vertex 0.1707366406917572 -0.55546033382415771 0.46543490886688232
    endloop
  endfacet
  facet normal 0.75436950249662837 -0.2416828300765341 -0.6103409402532215
    outer loop
      vertex 0.23911181092262268 -0.1707366406917572 0.1103418841958046
      vertex 0.29381194710731506 0 0.1103418841958046
      vertex 0.58110857009887695 0 0.46543490886688232
    endloop
  endfacet
  facet normal 0.75436950178510487 -0.2416828116339477 -0.61034094843554643
    outer loop
      vertex 0.23911181092262268 -0.1707366406917572 0.1103418841958046
      vertex 0.58110857009887695 0 0.46543490886688232
      vertex 0.47292128205299377 -0.33768719434738159 0.46543490886688232
    endloop
  endfacet
  facet normal 0.88993843384051707 0.28511601060584524 -0.35597534250239188
    outer loop
      vertex 0.58110857009887695 0 0.46543490886688232
      vertex 0.47292128205299377 0.33768719434738159 0.46543490886688232
      vertex 0.66231280565261841 0.47292128205299377 1.0472285747528076
    endloop
  endfacet
  facet normal 0.88993842579064286 0.28511602377235307 -0.35597535208145437
    outer loop
      vertex 0.58110857009887695 0 0.46543490886688232
      vertex 0.66231280565261841 0.47292128205299377 1.0472285747528076
      vertex 0.81382602453231812 0 1.0472285747528076
    endloop
  endfacet
  facet normal 0.54672860719309813 0.75864722565655751 -0.35431937158487858
    outer loop
      vertex 0.47292128205299377 0.33768719434738159 0.46543490886688232
      vertex 0.1707366406917572 0.55546033382415771 0.46543490886688232
      vertex 0.23911181092262268 0.77790641784667969 1.0472285747528076
    endloop
  endfacet
  facet normal 0.54672867478845677 0.75864719903728961 -0.35431932427816126
    outer loop
      vertex 0.47292128205299377 0.33768719434738159 0.46543490886688232
      vertex 0.23911181092262268 0.77790641784667969 1.0472285747528076
      vertex 0.66231280565261841 0.47292128205299377 1.0472285747528076
    endloop
  endfacet
  facet normal 0 0.93405421020001911 -0.3571312537536005
    outer loop
      vertex 0.1707366406917572 0.55546033382415771 0.46543490886688232
      vertex -0.1707366406917572 0.55546033382415771 0.46543490886688232
      vertex -0.23911181092262268 0.77790641784667969 1.0472285747528076
    endloop
  endfacet
  facet normal 0 0.93405421020001911 -0.3571312537536005
    outer loop
      vertex 0.1707366406917572 0.55546033382415771 0.46543490886688232
      vertex -0.23911181092262268 0.77790641784667969 1.0472285747528076
      vertex 0.23911181092262268 0.77790641784667969 1.0472285747528076
    endloop
  endfacet
  facet normal -0.54672861942118045 0.75864724262439243 -0.35431931638596337
    outer loop
      vertex -0.1707366406917572 0.55546033382415771 0.46543490886688232
      vertex -0.47292128205299377 0.33768719434738159 0.46543490886688232
      vertex -0.66231280565261841 0.47292128205299377 1.0472285747528076
    endloop
  endfacet
  facet normal -0.54672866605705284 0.75864718692148991 -0.35431936369267991
    outer loop
      vertex -0.1707366406917572 0.55546033382415771 0.46543490886688232
      vertex -0.66231280565261841 0.47292128205299377 1.0472285747528076
      vertex -0.23911181092262268 0.77790641784667969 1.0472285747528076
    endloop
  endfacet
  facet normal -0.88993842978583937 0.2851160093068188 -0.35597535367953292
    outer loop
      vertex -0.47292128205299377 0.33768719434738159 0.46543490886688232
      vertex -0.58110857009887695 0 0.46543490886688232
      vertex -0.81382602453231812 0 1.0472285747528076
    endloop
  endfacet
  facet normal -0.88993842868586615 0.28511602469991676 -0.35597534410046999
    outer loop
      vertex -0.47292128205299377 0.33768719434738159 0.46543490886688232
      vertex -0.81382602453231812 0 1.0472285747528076
      vertex -0.66231280565261841 0.47292128205299377 1.0472285747528076
    endloop
  endfacet
  facet normal -0.88993843384051707 -0.28511601060584524 -0.35597534250239188
    outer loop
      vertex -0.58110857009887695 0 0.46543490886688232
      vertex -0.47292128205299377 -0.33768719434738159 0.46543490886688232
      vertex -0.66231280565261841 -0.47292128205299377 1.0472285747528076
    endloop
  endfacet
  facet normal -0.88993842579064286 -0.28511602377235307 -0.35597535208145437
    outer loop
      vertex -0.58110857009887695 0 0.46543490886688232
      vertex -0.66231280565261841 -0.47292128205299377 1.0472285747528076
      vertex -0.81382602453231812 0 1.0472285747528076
    endloop
  endfacet
  facet normal -0.54672860719309813 -0.75864722565655751 -0.35431937158487858
    outer loop
      vertex -0.47292128205299377 -0.33768719434738159 0.46543490886688232
      vertex -0.1707366406917572 -0.55546033382415771 0.46543490886688232
      vertex -0.23911181092262268 -0.77790641784667969 1.0472285747528076
    endloop
  endfacet
  facet normal -0.54672867478845677 -0.75864719903728961 -0.35431932427816126
    outer loop
      vertex -0.47292128205299377 -0.33768719434738159 0.46543490886688232
      vertex -0.23911181092262268 -0.77790641784667969 1.0472285747528076
      vertex -0.66231280565261841 -0.47292128205299377 1.0472285747528076
    endloop
  endfacet
  facet normal 0 -0.93405421020001911 -0.3571312537536005
    outer loop
      vertex -0.1707366406917572 -0.55546033382415771 0.46543490886688232
      vertex 0.1707366406917572 -0.55546033382415771 0.46543490886688232
      vertex 0.23911181092262268 -0.77790641784667969 1.0472285747528076
    endloop
  endfacet
  facet normal 0 -0.93405421020001911 -0.3571312537536005
    outer loop
      vertex -0.1707366406917572 -0.55546033382415771 0.46543490886688232
      vertex 0.23911181092262268 -0.77790641784667969 1.0472285747528076
      vertex -0.23911181092262268 -0.77790641784667969 1.0472285747528076
    endloop
  endfacet
  facet normal 0.54672861942118045 -0.75864724262439243 -0.35431931638596337
    outer loop
      vertex 0.1707366406917572 -0.55546033382415771 0.46543490886688232
      vertex 0.47292128205299377 -0.33768719434738159 0.46543490886688232
      vertex 0.66231280565261841 -0.47292128205299377 1.0472285747528076
    endloop
  endfacet
  facet normal 0.54672866605705284 -0.75864718692148991 -0.35431936369267991
    outer loop
      vertex 0.1707366406917572 -0.55546033382415771 0.46543490886688232
      vertex 0.66231280565261841 -0.47292128205299377 1.0472285747528076
      vertex 0.23911181092262268 -0.77790641784667969 1.0472285747528076
    endloop
  endfacet
  facet normal 0.88993842978583937 -0.2851160093068188 -0.35597535367953292
    outer loop
      vertex 0.47292128205299377 -0.33768719434738159 0.46543490886688232
      vertex 0.58110857009887695 0 0.46543490886688232
      vertex 0.81382602453231812 0 1.0472285747528076
    endloop
  endfacet
  facet normal 0.88993842868586615 -0.28511602469991676 -0.35597534410046999
    outer loop
      vertex 0.47292128205299377 -0.33768719434738159 0.46543490886688232
      vertex 0.81382602453231812 0 1.0472285747528076
      vertex 0.66231280565261841 -0.47292128205299377 1.0472285747528076
    endloop
  endfacet
  facet normal 0.93586802020004334 0.29983082083244295 -0.18507438408865426
    outer loop
      vertex 0.81382602453231812 0 1.0472285747528076
      vertex 0.66231280565261841 0.47292128205299377 1.0472285747528076
      vertex 0.77790641784667969 0.55546033382415771 1.7654701471328735
    endloop
  endfacet
  facet normal 0.9358680436731367 0.29983077172992761 -0.1850743449407618
    outer loop
      vertex 0.81382602453231812 0 1.0472285747528076
      vertex 0.77790641784667969 0.55546033382415771 1.7654701471328735
      vertex 0.95586323738098145 0 1.7654701471328735
    endloop
  endfacet
  facet normal 0.57466293335970176 0.79740910782222441 -0.18412286057029187
    outer loop
      vertex 0.66231280565261841 0.47292128205299377 1.0472285747528076
      vertex 0.23911181092262268 0.77790641784667969 1.0472285747528076
      vertex 0.28084403276443481 0.91367453336715698 1.7654701471328735
    endloop
  endfacet
  facet normal 0.57466284133760848 0.79740915602404339 -0.18412293902392868
    outer loop
      vertex 0.66231280565261841 0.47292128205299377 1.0472285747528076
      vertex 0.28084403276443481 0.91367453336715698 1.7654701471328735
      vertex 0.77790641784667969 0.55546033382415771 1.7654701471328735
    endloop
  endfacet
  facet normal 0 0.9825990761762089 -0.18573921367783575
    outer loop
      vertex 0.23911181092262268 0.77790641784667969 1.0472285747528076
      vertex -0.23911181092262268 0.77790641784667969 1.0472285747528076
      vertex -0.28084403276443481 0.91367453336715698 1.7654701471328735
    endloop
  endfacet
  facet normal -0 0.9825990761762089 -0.18573921367783575
    outer loop
      vertex 0.23911181092262268 0.77790641784667969 1.0472285747528076
      vertex -0.28084403276443481 0.91367453336715698 1.7654701471328735
      vertex 0.28084403276443481 0.91367453336715698 1.7654701471328735
    endloop
  endfacet
  facet normal -0.57466292407770725 0.79740909494241863 -0.18412294532070639
    outer loop
      vertex -0.23911181092262268 0.77790641784667969 1.0472285747528076
      vertex -0.66231280565261841 0.47292128205299377 1.0472285747528076
      vertex -0.77790641784667969 0.55546033382415771 1.7654701471328735
    endloop
  endfacet
  facet normal -0.57466284924033684 0.79740916698996556 -0.18412286686706567
    outer loop
      vertex -0.23911181092262268 0.77790641784667969 1.0472285747528076
      vertex -0.77790641784667969 0.55546033382415771 1.7654701471328735
      vertex -0.28084403276443481 0.91367453336715698 1.7654701471328735
    endloop
  endfacet
  facet normal -0.9358680277846736 0.29983082326238591 -0.18507434179870894
    outer loop
      vertex -0.66231280565261841 0.47292128205299377 1.0472285747528076
      vertex -0.81382602453231812 0 1.0472285747528076
      vertex -0.95586323738098145 0 1.7654701471328735
    endloop
  endfacet
  facet normal -0.93586803721555012 0.2998307696610642 -0.18507438094660114
    outer loop
      vertex -0.66231280565261841 0.47292128205299377 1.0472285747528076
      vertex -0.95586323738098145 0 1.7654701471328735
      vertex -0.77790641784667969 0.55546033382415771 1.7654701471328735
    endloop
  endfacet
  facet normal -0.93586802020004334 -0.29983082083244295 -0.18507438408865426
    outer loop
      vertex -0.81382602453231812 0 1.0472285747528076
      vertex -0.66231280565261841 -0.47292128205299377 1.0472285747528076
      vertex -0.77790641784667969 -0.55546033382415771 1.7654701471328735
    endloop
  endfacet
  facet normal -0.9358680436731367 -0.29983077172992761 -0.1850743449407618
    outer loop
      vertex -0.81382602453231812 0 1.0472285747528076
      vertex -0.77790641784667969 -0.55546033382415771 1.7654701471328735
      vertex -0.95586323738098145 0 1.7654701471328735
    endloop
  endfacet
  facet normal -0.57466293335970176 -0.79740910782222441 -0.18412286057029187
    outer loop
      vertex -0.66231280565261841 -0.47292128205299377 1.0472285747528076
      vertex -0.23911181092262268 -0.77790641784667969 1.0472285747528076
      vertex -0.28084403276443481 -0.91367453336715698 1.7654701471328735
    endloop
  endfacet
  facet normal -0.57466284133760848 -0.79740915602404339 -0.18412293902392868
    outer loop
      vertex -0.66231280565261841 -0.47292128205299377 1.0472285747528076
      vertex -0.28084403276443481 -0.91367453336715698 1.7654701471328735
      vertex -0.77790641784667969 -0.55546033382415771 1.7654701471328735
    endloop
  endfacet
  facet normal -0 -0.9825990761762089 -0.18573921367783575
    outer loop
      vertex -0.23911181092262268 -0.77790641784667969 1.0472285747528076
      vertex 0.23911181092262268 -0.77790641784667969 1.0472285747528076
      vertex 0.28084403276443481 -0.91367453336715698 1.7654701471328735
    endloop
  endfacet
  facet normal 0 -0.9825990761762089 -0.18573921367783575
    outer loop
      vertex -0.23911181092262268 -0.77790641784667969 1.0472285747528076
      vertex 0.28084403276443481 -0.91367453336715698 1.7654701471328735
      vertex -0.28084403276443481 -0.91367453336715698 1.7654701471328735
    endloop
  endfacet
  facet normal 0.57466292407770725 -0.79740909494241863 -0.18412294532070639
    outer loop
      vertex 0.23911181092262268 -0.77790641784667969 1.0472285747528076
      vertex 0.66231280565261841 -0.47292128205299377 1.0472285747528076
      vertex 0.77790641784667969 -0.55546033382415771 1.7654701471328735
    endloop
  endfacet
  facet normal 0.57466284924033684 -0.79740916698996556 -0.18412286686706567
    outer loop
      vertex 0.23911181092262268 -0.77790641784667969 1.0472285747528076
      vertex 0.77790641784667969 -0.55546033382415771 1.7654701471328735
      vertex 0.28084403276443481 -0.91367453336715698 1.7654701471328735
    endloop
  endfacet
  facet normal 0.9358680277846736 -0.29983082326238591 -0.18507434179870894
    outer loop
      vertex 0.66231280565261841 -0.47292128205299377 1.0472285747528076
      vertex 0.81382602453231812 0 1.0472285747528076
      vertex 0.95586323738098145 0 1.7654701471328735
    endloop
  endfacet
  facet normal 0.93586803721555012 -0.2998307696610642 -0.18507438094660114
    outer loop
      vertex 0.66231280565261841 -0.47292128205299377 1.0472285747528076
      vertex 0.95586323738098145 0 1.7654701471328735
      vertex 0.77790641784667969 -0.55546033382415771 1.7654701471328735
    endloop
  endfacet
  facet normal 0.95076445019539235 0.30460324055581112 -0.057129905369710542
    outer loop
      vertex 0.95586323738098145 0 1.7654701471328735
      vertex 0.77790641784667969 0.55546033382415771 1.7654701471328735
      vertex 0.81382602453231812 0.58110857009887695 2.5
    endloop
  endfacet
  facet normal 0.95076442509397607 0.30460330798919782 -0.057129963572183813
    outer loop
      vertex 0.95586323738098145 0 1.7654701471328735
      vertex 0.81382602453231812 0.58110857009887695 2.5
      vertex 1 0 2.5
    endloop
  endfacet
  facet normal 0.58371383804597177 0.8099684292660595 -0.056826920257157923
    outer loop
      vertex 0.77790641784667969 0.55546033382415771 1.7654701471328735
      vertex 0.28084403276443481 0.91367453336715698 1.7654701471328735
      vertex 0.29381194710731506 0.95586323738098145 2.5
    endloop
  endfacet
  facet normal 0.58371388552393322 0.809968398425299 -0.056826872154894216
    outer loop
      vertex 0.77790641784667969 0.55546033382415771 1.7654701471328735
      vertex 0.29381194710731506 0.95586323738098145 2.5
      vertex 0.81382602453231812 0.58110857009887695 2.5
    endloop
  endfacet
  facet normal 0 0.99835460352983518 -0.057341831247229781
    outer loop
      vertex 0.28084403276443481 0.91367453336715698 1.7654701471328735
      vertex -0.28084403276443481 0.91367453336715698 1.7654701471328735
      vertex -0.29381194710731506 0.95586323738098145 2.5
    endloop
  endfacet
  facet normal -0 0.99835460352983518 -0.057341831247229781
    outer loop
      vertex 0.28084403276443481 0.91367453336715698 1.7654701471328735
      vertex -0.29381194710731506 0.95586323738098145 2.5
      vertex 0.29381194710731506 0.95586323738098145 2.5
    endloop
  endfacet
  facet normal -0.5837138396828474 0.80996843153740805 -0.056826871069401812
    outer loop
      vertex -0.28084403276443481 0.91367453336715698 1.7654701471328735
      vertex -0.77790641784667969 0.55546033382415771 1.7654701471328735
      vertex -0.81382602453231812 0.58110857009887695 2.5
    endloop
  endfacet
  facet normal -0.58371388395930379 0.80996839625420047 -0.056826919171664401
    outer loop
      vertex -0.28084403276443481 0.91367453336715698 1.7654701471328735
      vertex -0.81382602453231812 0.58110857009887695 2.5
      vertex -0.29381194710731506 0.95586323738098145 2.5
    endloop
  endfacet
  facet normal -0.95076444695207529 0.30460323951672635 -0.057129964885603186
    outer loop
      vertex -0.77790641784667969 0.55546033382415771 1.7654701471328735
      vertex -0.95586323738098145 0 1.7654701471328735
      vertex -1 0 2.5
    endloop
  endfacet
  facet normal -0.95076442819414353 0.30460330898242099 -0.057129906683129797
    outer loop
      vertex -0.77790641784667969 0.55546033382415771 1.7654701471328735
      vertex -1 0 2.5
      vertex -0.81382602453231812 0.58110857009887695 2.5
    endloop
  endfacet
  facet normal -0.95076445019539235 -0.30460324055581112 -0.057129905369710542
    outer loop
      vertex -0.95586323738098145 0 1.7654701471328735
      vertex -0.77790641784667969 -0.55546033382415771 1.7654701471328735
      vertex -0.81382602453231812 -0.58110857009887695 2.5
    endloop
  endfacet
  facet normal -0.95076442509397607 -0.30460330798919782 -0.057129963572183813
    outer loop
      vertex -0.95586323738098145 0 1.7654701471328735
      vertex -0.81382602453231812 -0.58110857009887695 2.5
      vertex -1 0 2.5
    endloop
  endfacet
  facet normal -0.58371383804597177 -0.8099684292660595 -0.056826920257157923
    outer loop
      vertex -0.77790641784667969 -0.55546033382415771 1.7654701471328735
      vertex -0.28084403276443481 -0.91367453336715698 1.7654701471328735
      vertex -0.29381194710731506 -0.95586323738098145 2.5
    endloop
  endfacet
  facet normal -0.58371388552393322 -0.809968398425299 -0.056826872154894216
    outer loop
      vertex -0.77790641784667969 -0.55546033382415771 1.7654701471328735
      vertex -0.29381194710731506 -0.95586323738098145 2.5
      vertex -0.81382602453231812 -0.58110857009887695 2.5
    endloop
  endfacet
  facet normal -0 -0.99835460352983518 -0.057341831247229781
    outer loop
      vertex -0.28084403276443481 -0.91367453336715698 1.7654701471328735
      vertex 0.28084403276443481 -0.91367453336715698 1.7654701471328735
      vertex 0.29381194710731506 -0.95586323738098145 2.5
    endloop
  endfacet
  facet normal 0 -0.99835460352983518 -0.057341831247229781
    outer loop
      vertex -0.28084403276443481 -0.91367453336715698 1.7654701471328735
      vertex 0.29381194710731506 -0.95586323738098145 2.5
      vertex -0.29381194710731506 -0.95586323738098145 2.5
    endloop
  endfacet
  facet normal 0.5837138396828474 -0.80996843153740805 -0.056826871069401812
    outer loop
      vertex 0.28084403276443481 -0.91367453336715698 1.7654701471328735
      vertex 0.77790641784667969 -0.55546033382415771 1.7654701471328735
      vertex 0.81382602453231812 -0.58110857009887695 2.5
    endloop
  endfacet
  facet normal 0.58371388395930379 -0.80996839625420047 -0.056826919171664401
    outer loop
      vertex 0.28084403276443481 -0.91367453336715698 1.7654701471328735
      vertex 0.81382602453231812 -0.58110857009887695 2.5
      vertex 0.29381194710731506 -0.95586323738098145 2.5
    endloop
  endfacet
  facet normal 0.95076444695207529 -0.30460323951672635 -0.057129964885603186
    outer loop
      vertex 0.77790641784667969 -0.55546033382415771 1.7654701471328735
      vertex 0.95586323738098145 0 1.7654701471328735
      vertex 1 0 2.5
    endloop
  endfacet
  facet normal 0.95076442819414353 -0.30460330898242099 -0.057129906683129797
    outer loop
      vertex 0.77790641784667969 -0.55546033382415771 1.7654701471328735
      vertex 1 0 2.5
      vertex 0.81382602453231812 -0.58110857009887695 2.5
    endloop
  endfacet
  facet normal 0.95076442769052605 0.30460330882107339 0.057129915924672044
    outer loop
      vertex 1 0 2.5
      vertex 0.81382602453231812 0.58110857009887695 2.5
      vertex 0.77790641784667969 0.55546033382415771 3.2345297336578369
    endloop
  endfacet
  facet normal 0.95076444644845692 0.30460323935537847 0.057129974127154787
    outer loop
      vertex 1 0 2.5
      vertex 0.77790641784667969 0.55546033382415771 3.2345297336578369
      vertex 0.95586323738098145 0 3.2345297336578369
    endloop
  endfacet
  facet normal 0.58371388365338295 0.80996839582970104 0.056826928364512724
    outer loop
      vertex 0.81382602453231812 0.58110857009887695 2.5
      vertex 0.29381194710731506 0.95586323738098145 2.5
      vertex 0.28084403276443481 0.91367453336715698 3.2345297336578369
    endloop
  endfacet
  facet normal 0.58371383937692711 0.80996843111290928 0.056826880262242398
    outer loop
      vertex 0.81382602453231812 0.58110857009887695 2.5
      vertex 0.28084403276443481 0.91367453336715698 3.2345297336578369
      vertex 0.77790641784667969 0.55546033382415771 3.2345297336578369
    endloop
  endfacet
  facet normal 0 0.99835460299707868 0.05734184052282796
    outer loop
      vertex 0.29381194710731506 0.95586323738098145 2.5
      vertex -0.29381194710731506 0.95586323738098145 2.5
      vertex -0.28084403276443481 0.91367453336715698 3.2345297336578369
    endloop
  endfacet
  facet normal -0 0.99835460299707868 0.05734184052282796
    outer loop
      vertex 0.29381194710731506 0.95586323738098145 2.5
      vertex -0.28084403276443481 0.91367453336715698 3.2345297336578369
      vertex 0.28084403276443481 0.91367453336715698 3.2345297336578369
    endloop
  endfacet
  facet normal -0.58371388521801293 0.80996839800080034 0.056826881347734982
    outer loop
      vertex -0.29381194710731506 0.95586323738098145 2.5
      vertex -0.81382602453231812 0.58110857009887695 2.5
      vertex -0.77790641784667969 0.55546033382415771 3.2345297336578369
    endloop
  endfacet
  facet normal -0.58371383774005092 0.80996842884156006 0.056826929450006412
    outer loop
      vertex -0.29381194710731506 0.95586323738098145 2.5
      vertex -0.77790641784667969 0.55546033382415771 3.2345297336578369
      vertex -0.28084403276443481 0.91367453336715698 3.2345297336578369
    endloop
  endfacet
  facet normal -0.95076442459035759 0.30460330782784995 0.057129972813735198
    outer loop
      vertex -0.81382602453231812 0.58110857009887695 2.5
      vertex -1 0 2.5
      vertex -0.95586323738098145 0 3.2345297336578369
    endloop
  endfacet
  facet normal -0.95076444969177487 0.30460324039446357 0.05712991461125258
    outer loop
      vertex -0.81382602453231812 0.58110857009887695 2.5
      vertex -0.95586323738098145 0 3.2345297336578369
      vertex -0.77790641784667969 0.55546033382415771 3.2345297336578369
    endloop
  endfacet
  facet normal -0.95076442769052605 -0.30460330882107339 0.057129915924672044
    outer loop
      vertex -1 0 2.5
      vertex -0.81382602453231812 -0.58110857009887695 2.5
      vertex -0.77790641784667969 -0.55546033382415771 3.2345297336578369
    endloop
  endfacet
  facet normal -0.95076444644845692 -0.30460323935537847 0.057129974127154787
    outer loop
      vertex -1 0 2.5
      vertex -0.77790641784667969 -0.55546033382415771 3.2345297336578369
      vertex -0.95586323738098145 0 3.2345297336578369
    endloop
  endfacet
  facet normal -0.58371388365338295 -0.80996839582970104 0.056826928364512724
    outer loop
      vertex -0.81382602453231812 -0.58110857009887695 2.5
      vertex -0.29381194710731506 -0.95586323738098145 2.5
      vertex -0.28084403276443481 -0.91367453336715698 3.2345297336578369
    endloop
  endfacet
  facet normal -0.58371383937692711 -0.80996843111290928 0.056826880262242398
    outer loop
      vertex -0.81382602453231812 -0.58110857009887695 2.5
      vertex -0.28084403276443481 -0.91367453336715698 3.2345297336578369
      vertex -0.77790641784667969 -0.55546033382415771 3.2345297336578369
    endloop
  endfacet
  facet normal -0 -0.99835460299707868 0.05734184052282796
    outer loop
      vertex -0.29381194710731506 -0.95586323738098145 2.5
      vertex 0.29381194710731506 -0.95586323738098145 2.5
      vertex 0.28084403276443481 -0.91367453336715698 3.2345297336578369
    endloop
  endfacet
  facet normal 0 -0.99835460299707868 0.05734184052282796
    outer loop
      vertex -0.29381194710731506 -0.95586323738098145 2.5
      vertex 0.28084403276443481 -0.91367453336715698 3.2345297336578369
      vertex -0.28084403276443481 -0.91367453336715698 3.2345297336578369
    endloop
  endfacet
  facet normal 0.58371388521801293 -0.80996839800080034 0.056826881347734982
    outer loop
      vertex 0.29381194710731506 -0.95586323738098145 2.5
      vertex 0.81382602453231812 -0.58110857009887695 2.5
      vertex 0.77790641784667969 -0.55546033382415771 3.2345297336578369
    endloop
  endfacet
  facet normal 0.58371383774005092 -0.80996842884156006 0.056826929450006412
    outer loop
      vertex 0.29381194710731506 -0.95586323738098145 2.5
      vertex 0.77790641784667969 -0.55546033382415771 3.2345297336578369
      vertex 0.28084403276443481 -0.91367453336715698 3.2345297336578369
    endloop
  endfacet
  facet normal 0.95076442459035759 -0.30460330782784995 0.057129972813735198
    outer loop
      vertex 0.81382602453231812 -0.58110857009887695 2.5
      vertex 1 0 2.5
      vertex 0.95586323738098145 0 3.2345297336578369
    endloop
  endfacet
  facet normal 0.95076444969177487 -0.30460324039446357 0.05712991461125258
    outer loop
      vertex 0.81382602453231812 -0.58110857009887695 2.5
      vertex 0.95586323738098145 0 3.2345297336578369
      vertex 0.77790641784667969 -0.55546033382415771 3.2345297336578369
    endloop
  endfacet
  facet normal 0.93586804253597944 0.29983077136560837 0.18507435128125782
    outer loop
      vertex 0.95586323738098145 0 3.2345297336578369
      vertex 0.77790641784667969 0.55546033382415771 3.2345297336578369
      vertex 0.66231280565261841 0.47292128205299377 3.9527714252471924
    endloop
  endfacet
  facet normal 0.93586803310510069 0.2998308249669297 0.18507431213337144
    outer loop
      vertex 0.95586323738098145 0 3.2345297336578369
      vertex 0.66231280565261841 0.47292128205299377 3.9527714252471924
      vertex 0.81382602453231812 0 3.9527714252471924
    endloop
  endfacet
  facet normal 0.57466285247380089 0.7974091714767596 0.18412283734350393
    outer loop
      vertex 0.77790641784667969 0.55546033382415771 3.2345297336578369
      vertex 0.28084403276443481 0.91367453336715698 3.2345297336578369
      vertex 0.23911181092262268 0.77790641784667969 3.9527714252471924
    endloop
  endfacet
  facet normal 0.57466292731117452 0.79740909942921612 0.18412291579713294
    outer loop
      vertex 0.77790641784667969 0.55546033382415771 3.2345297336578369
      vertex 0.23911181092262268 0.77790641784667969 3.9527714252471924
      vertex 0.66231280565261841 0.47292128205299377 3.9527714252471924
    endloop
  endfacet
  facet normal 0 0.98259908180251054 0.1857391839135272
    outer loop
      vertex 0.28084403276443481 0.91367453336715698 3.2345297336578369
      vertex -0.28084403276443481 0.91367453336715698 3.2345297336578369
      vertex -0.23911181092262268 0.77790641784667969 3.9527714252471924
    endloop
  endfacet
  facet normal -0 0.98259908180251054 0.1857391839135272
    outer loop
      vertex 0.28084403276443481 0.91367453336715698 3.2345297336578369
      vertex -0.23911181092262268 0.77790641784667969 3.9527714252471924
      vertex 0.23911181092262268 0.77790641784667969 3.9527714252471924
    endloop
  endfacet
  facet normal -0.57466284457107508 0.79740916051084099 0.1841229095003562
    outer loop
      vertex -0.28084403276443481 0.91367453336715698 3.2345297336578369
      vertex -0.77790641784667969 0.55546033382415771 3.2345297336578369
      vertex -0.66231280565261841 0.47292128205299377 3.9527714252471924
    endloop
  endfacet
  facet normal -0.57466293659316603 0.7974091123090179 0.18412283104673108
    outer loop
      vertex -0.28084403276443481 0.91367453336715698 3.2345297336578369
      vertex -0.66231280565261841 0.47292128205299377 3.9527714252471924
      vertex -0.23911181092262268 0.77790641784667969 3.9527714252471924
    endloop
  endfacet
  facet normal -0.93586804899356391 0.29983077343447112 0.18507431527542384
    outer loop
      vertex -0.77790641784667969 0.55546033382415771 3.2345297336578369
      vertex -0.95586323738098145 0 3.2345297336578369
      vertex -0.81382602453231812 0 3.9527714252471924
    endloop
  endfacet
  facet normal -0.93586802552047277 0.29983082253698751 0.18507435442331052
    outer loop
      vertex -0.77790641784667969 0.55546033382415771 3.2345297336578369
      vertex -0.81382602453231812 0 3.9527714252471924
      vertex -0.66231280565261841 0.47292128205299377 3.9527714252471924
    endloop
  endfacet
  facet normal -0.93586804253597944 -0.29983077136560837 0.18507435128125782
    outer loop
      vertex -0.95586323738098145 0 3.2345297336578369
      vertex -0.77790641784667969 -0.55546033382415771 3.2345297336578369
      vertex -0.66231280565261841 -0.47292128205299377 3.9527714252471924
    endloop
  endfacet
  facet normal -0.93586803310510069 -0.2998308249669297 0.18507431213337144
    outer loop
      vertex -0.95586323738098145 0 3.2345297336578369
      vertex -0.66231280565261841 -0.47292128205299377 3.9527714252471924
      vertex -0.81382602453231812 0 3.9527714252471924
    endloop
  endfacet
  facet normal -0.57466285247380089 -0.7974091714767596 0.18412283734350393
    outer loop
      vertex -0.77790641784667969 -0.55546033382415771 3.2345297336578369
      vertex -0.28084403276443481 -0.91367453336715698 3.2345297336578369
      vertex -0.23911181092262268 -0.77790641784667969 3.9527714252471924
    endloop
  endfacet
  facet normal -0.57466292731117452 -0.79740909942921612 0.18412291579713294
    outer loop
      vertex -0.77790641784667969 -0.55546033382415771 3.2345297336578369
      vertex -0.23911181092262268 -0.77790641784667969 3.9527714252471924
      vertex -0.66231280565261841 -0.47292128205299377 3.9527714252471924
    endloop
  endfacet
  facet normal -0 -0.98259908180251054 0.1857391839135272
    outer loop
      vertex -0.28084403276443481 -0.91367453336715698 3.2345297336578369
      vertex 0.28084403276443481 -0.91367453336715698 3.2345297336578369
      vertex 0.23911181092262268 -0.77790641784667969 3.9527714252471924
    endloop
  endfacet
  facet normal 0 -0.98259908180251054 0.1857391839135272
    outer loop
      vertex -0.28084403276443481 -0.91367453336715698 3.2345297336578369
      vertex 0.23911181092262268 -0.77790641784667969 3.9527714252471924
      vertex -0.23911181092262268 -0.77790641784667969 3.9527714252471924
    endloop
  endfacet
  facet normal 0.57466284457107508 -0.79740916051084099 0.1841229095003562
    outer loop
      vertex 0.28084403276443481 -0.91367453336715698 3.2345297336578369
      vertex 0.77790641784667969 -0.55546033382415771 3.2345297336578369
      vertex 0.66231280565261841 -0.47292128205299377 3.9527714252471924
    endloop
  endfacet
  facet normal 0.57466293659316603 -0.7974091123090179 0.18412283104673108
    outer loop
      vertex 0.28084403276443481 -0.91367453336715698 3.2345297336578369
      vertex 0.66231280565261841 -0.47292128205299377 3.9527714252471924
      vertex 0.23911181092262268 -0.77790641784667969 3.9527714252471924
    endloop
  endfacet
  facet normal 0.93586804899356391 -0.29983077343447112 0.18507431527542384
    outer loop
      vertex 0.77790641784667969 -0.55546033382415771 3.2345297336578369
      vertex 0.95586323738098145 0 3.2345297336578369
      vertex 0.81382602453231812 0 3.9527714252471924
    endloop
  endfacet
  facet normal 0.93586802552047277 -0.29983082253698751 0.18507435442331052
    outer loop
      vertex 0.77790641784667969 -0.55546033382415771 3.2345297336578369
      vertex 0.81382602453231812 0 3.9527714252471924
      vertex 0.66231280565261841 -0.47292128205299377 3.9527714252471924
    endloop
  endfacet
  facet normal 0.88993840557900117 0.28511601729700292 0.35597540779694348
    outer loop
      vertex 0.81382602453231812 0 3.9527714252471924
      vertex 0.66231280565261841 0.47292128205299377 3.9527714252471924
      vertex 0.47292128205299377 0.33768719434738159 4.5345649719238281
    endloop
  endfacet
  facet normal 0.88993840667897328 0.28511600190390507 0.35597541737600763
    outer loop
      vertex 0.81382602453231812 0 3.9527714252471924
      vertex 0.47292128205299377 0.33768719434738159 4.5345649719238281
      vertex 0.58110857009887695 0 4.5345649719238281
    endloop
  endfacet
  facet normal 0.54672865199324749 0.7586471674063866 0.35431942717823495
    outer loop
      vertex 0.66231280565261841 0.47292128205299377 3.9527714252471924
      vertex 0.23911181092262268 0.77790641784667969 3.9527714252471924
      vertex 0.1707366406917572 0.55546033382415771 4.5345649719238281
    endloop
  endfacet
  facet normal 0.54672860535737999 0.75864722310929289 0.35431937987151235
    outer loop
      vertex 0.66231280565261841 0.47292128205299377 3.9527714252471924
      vertex 0.1707366406917572 0.55546033382415771 4.5345649719238281
      vertex 0.47292128205299377 0.33768719434738159 4.5345649719238281
    endloop
  endfacet
  facet normal 0 0.93405418578994892 0.35713131759658867
    outer loop
      vertex 0.23911181092262268 0.77790641784667969 3.9527714252471924
      vertex -0.23911181092262268 0.77790641784667969 3.9527714252471924
      vertex -0.1707366406917572 0.55546033382415771 4.5345649719238281
    endloop
  endfacet
  facet normal 0 0.93405418578994892 0.35713131759658867
    outer loop
      vertex 0.23911181092262268 0.77790641784667969 3.9527714252471924
      vertex -0.1707366406917572 0.55546033382415771 4.5345649719238281
      vertex 0.1707366406917572 0.55546033382415771 4.5345649719238281
    endloop
  endfacet
  facet normal -0.54672866072465431 0.75864717952219041 0.3543193877637113
    outer loop
      vertex -0.23911181092262268 0.77790641784667969 3.9527714252471924
      vertex -0.66231280565261841 0.47292128205299377 3.9527714252471924
      vertex -0.47292128205299377 0.33768719434738159 4.5345649719238281
    endloop
  endfacet
  facet normal -0.54672859312929367 0.75864720614145242 0.35431943507043462
    outer loop
      vertex -0.23911181092262268 0.77790641784667969 3.9527714252471924
      vertex -0.47292128205299377 0.33768719434738159 4.5345649719238281
      vertex -0.1707366406917572 0.55546033382415771 4.5345649719238281
    endloop
  endfacet
  facet normal -0.88993840268377711 0.28511601636943901 0.35597541577792891
    outer loop
      vertex -0.66231280565261841 0.47292128205299377 3.9527714252471924
      vertex -0.81382602453231812 0 3.9527714252471924
      vertex -0.58110857009887695 0 4.5345649719238281
    endloop
  endfacet
  facet normal -0.88993841073365221 0.28511600320293184 0.35597540619886514
    outer loop
      vertex -0.66231280565261841 0.47292128205299377 3.9527714252471924
      vertex -0.58110857009887695 0 4.5345649719238281
      vertex -0.47292128205299377 0.33768719434738159 4.5345649719238281
    endloop
  endfacet
  facet normal -0.88993840557900117 -0.28511601729700292 0.35597540779694348
    outer loop
      vertex -0.81382602453231812 0 3.9527714252471924
      vertex -0.66231280565261841 -0.47292128205299377 3.9527714252471924
      vertex -0.47292128205299377 -0.33768719434738159 4.5345649719238281
    endloop
  endfacet
  facet normal -0.88993840667897328 -0.28511600190390507 0.35597541737600763
    outer loop
      vertex -0.81382602453231812 0 3.9527714252471924
      vertex -0.47292128205299377 -0.33768719434738159 4.5345649719238281
      vertex -0.58110857009887695 0 4.5345649719238281
    endloop
  endfacet
  facet normal -0.54672865199324749 -0.7586471674063866 0.35431942717823495
    outer loop
      vertex -0.66231280565261841 -0.47292128205299377 3.9527714252471924
      vertex -0.23911181092262268 -0.77790641784667969 3.9527714252471924
      vertex -0.1707366406917572 -0.55546033382415771 4.5345649719238281
    endloop
  endfacet
  facet normal -0.54672860535737999 -0.75864722310929289 0.35431937987151235
    outer loop
      vertex -0.66231280565261841 -0.47292128205299377 3.9527714252471924
      vertex -0.1707366406917572 -0.55546033382415771 4.5345649719238281
      vertex -0.47292128205299377 -0.33768719434738159 4.5345649719238281
    endloop
  endfacet
  facet normal 0 -0.93405418578994892 0.35713131759658867
    outer loop
      vertex -0.23911181092262268 -0.77790641784667969 3.9527714252471924
      vertex 0.23911181092262268 -0.77790641784667969 3.9527714252471924
      vertex 0.1707366406917572 -0.55546033382415771 4.5345649719238281
    endloop
  endfacet
  facet normal 0 -0.93405418578994892 0.35713131759658867
    outer loop
      vertex -0.23911181092262268 -0.77790641784667969 3.9527714252471924
      vertex 0.1707366406917572 -0.55546033382415771 4.5345649719238281
      vertex -0.1707366406917572 -0.55546033382415771 4.5345649719238281
    endloop
  endfacet
  facet normal 0.54672866072465431 -0.75864717952219041 0.3543193877637113
    outer loop
      vertex 0.23911181092262268 -0.77790641784667969 3.9527714252471924
      vertex 0.66231280565261841 -0.47292128205299377 3.9527714252471924
      vertex 0.47292128205299377 -0.33768719434738159 4.5345649719238281
    endloop
  endfacet
  facet normal 0.54672859312929367 -0.75864720614145242 0.35431943507043462
    outer loop
      vertex 0.23911181092262268 -0.77790641784667969 3.9527714252471924
      vertex 0.47292128205299377 -0.33768719434738159 4.5345649719238281
      vertex 0.1707366406917572 -0.55546033382415771 4.5345649719238281
    endloop
  endfacet
  facet normal 0.88993840268377711 -0.28511601636943901 0.35597541577792891
    outer loop
      vertex 0.66231280565261841 -0.47292128205299377 3.9527714252471924
      vertex 0.81382602453231812 0 3.9527714252471924
      vertex 0.58110857009887695 0 4.5345649719238281
    endloop
  endfacet
  facet normal 0.88993841073365221 -0.28511600320293184 0.35597540619886514
    outer loop
      vertex 0.66231280565261841 -0.47292128205299377 3.9527714252471924
      vertex 0.58110857009887695 0 4.5345649719238281
      vertex 0.47292128205299377 -0.33768719434738159 4.5345649719238281
    endloop
  endfacet
  facet normal 0.754369484096304 0.24168280596685868 0.61034097254261244
    outer loop
      vertex 0.58110857009887695 0 4.5345649719238281
      vertex 0.47292128205299377 0.33768719434738159 4.5345649719238281
      vertex 0.23911181092262268 0.1707366406917572 4.8896579742431641
    endloop
  endfacet
  facet normal 0.75436948480782784 0.24168282440944475 0.61034096436028751
    outer loop
      vertex 0.58110857009887695 0 4.5345649719238281
      vertex 0.23911181092262268 0.1707366406917572 4.8896579742431641
      vertex 0.29381194710731506 0 4.8896579742431641
    endloop
  endfacet
  facet normal 0.4640491929651725 0.64392027082433756 0.60829682830825604
    outer loop
      vertex 0.47292128205299377 0.33768719434738159 4.5345649719238281
      vertex 0.1707366406917572 0.55546033382415771 4.5345649719238281
      vertex 0.086325451731681824 0.28084403276443481 4.8896579742431641
    endloop
  endfacet
  facet normal 0.46404917748336005 0.64392029434712905 0.60829681521846191
    outer loop
      vertex 0.47292128205299377 0.33768719434738159 4.5345649719238281
      vertex 0.086325451731681824 0.28084403276443481 4.8896579742431641
      vertex 0.23911181092262268 0.1707366406917572 4.8896579742431641
    endloop
  endfacet
  facet normal 0 0.79104107600744422 0.61176303914913399
    outer loop
      vertex 0.1707366406917572 0.55546033382415771 4.5345649719238281
      vertex -0.1707366406917572 0.55546033382415771 4.5345649719238281
      vertex -0.086325451731681824 0.28084403276443481 4.8896579742431641
    endloop
  endfacet
  facet normal 0 0.79104107600744422 0.61176303914913399
    outer loop
      vertex 0.1707366406917572 0.55546033382415771 4.5345649719238281
      vertex -0.086325451731681824 0.28084403276443481 4.8896579742431641
      vertex 0.086325451731681824 0.28084403276443481 4.8896579742431641
    endloop
  endfacet
  facet normal -0.46404919690448054 0.64392027629056903 0.60829681951674208
    outer loop
      vertex -0.1707366406917572 0.55546033382415771 4.5345649719238281
      vertex -0.47292128205299377 0.33768719434738159 4.5345649719238281
      vertex -0.23911181092262268 0.1707366406917572 4.8896579742431641
    endloop
  endfacet
  facet normal -0.46404916969209931 0.64392028353588071 0.60829683260653611
    outer loop
      vertex -0.1707366406917572 0.55546033382415771 4.5345649719238281
      vertex -0.23911181092262268 0.1707366406917572 4.8896579742431641
      vertex -0.086325451731681824 0.28084403276443481 4.8896579742431641
    endloop
  endfacet
  facet normal -0.75436948812868532 0.24168280725874186 0.61034096704710794
    outer loop
      vertex -0.47292128205299377 0.33768719434738159 4.5345649719238281
      vertex -0.58110857009887695 0 4.5345649719238281
      vertex -0.29381194710731506 0 4.8896579742431641
    endloop
  endfacet
  facet normal -0.75436947683248323 0.24168282185432571 0.61034097522943331
    outer loop
      vertex -0.47292128205299377 0.33768719434738159 4.5345649719238281
      vertex -0.29381194710731506 0 4.8896579742431641
      vertex -0.23911181092262268 0.1707366406917572 4.8896579742431641
    endloop
  endfacet
  facet normal -0.754369484096304 -0.24168280596685868 0.61034097254261244
    outer loop
      vertex -0.58110857009887695 0 4.5345649719238281
      vertex -0.47292128205299377 -0.33768719434738159 4.5345649719238281
      vertex -0.23911181092262268 -0.1707366406917572 4.8896579742431641
    endloop
  endfacet
  facet normal -0.75436948480782784 -0.24168282440944475 0.61034096436028751
    outer loop
      vertex -0.58110857009887695 0 4.5345649719238281
      vertex -0.23911181092262268 -0.1707366406917572 4.8896579742431641
      vertex -0.29381194710731506 0 4.8896579742431641
    endloop
  endfacet
  facet normal -0.4640491929651725 -0.64392027082433756 0.60829682830825604
    outer loop
      vertex -0.47292128205299377 -0.33768719434738159 4.5345649719238281
      vertex -0.1707366406917572 -0.55546033382415771 4.5345649719238281
      vertex -0.086325451731681824 -0.28084403276443481 4.8896579742431641
    endloop
  endfacet
  facet normal -0.46404917748336005 -0.64392029434712905 0.60829681521846191
    outer loop
      vertex -0.47292128205299377 -0.33768719434738159 4.5345649719238281
      vertex -0.086325451731681824 -0.28084403276443481 4.8896579742431641
      vertex -0.23911181092262268 -0.1707366406917572 4.8896579742431641
    endloop
  endfacet
  facet normal 0 -0.79104107600744422 0.61176303914913399
    outer loop
      vertex -0.1707366406917572 -0.55546033382415771 4.5345649719238281
      vertex 0.1707366406917572 -0.55546033382415771 4.5345649719238281
      vertex 0.086325451731681824 -0.28084403276443481 4.8896579742431641
    endloop
  endfacet
  facet normal 0 -0.79104107600744422 0.61176303914913399
    outer loop
      vertex -0.1707366406917572 -0.55546033382415771 4.5345649719238281
      vertex 0.086325451731681824 -0.28084403276443481 4.8896579742431641
      vertex -0.086325451731681824 -0.28084403276443481 4.8896579742431641
    endloop
  endfacet
  facet normal 0.46404919690448054 -0.64392027629056903 0.60829681951674208
    outer loop
      vertex 0.1707366406917572 -0.55546033382415771 4.5345649719238281
      vertex 0.47292128205299377 -0.33768719434738159 4.5345649719238281
      vertex 0.23911181092262268 -0.1707366406917572 4.8896579742431641
    endloop
  endfacet
  facet normal 0.46404916969209931 -0.64392028353588071 0.60829683260653611
    outer loop
      vertex 0.1707366406917572 -0.55546033382415771 4.5345649719238281
      vertex 0.23911181092262268 -0.1707366406917572 4.8896579742431641
      vertex 0.086325451731681824 -0.28084403276443481 4.8896579742431641
    endloop
  endfacet
  facet normal 0.75436948812868532 -0.24168280725874186 0.61034096704710794
    outer loop
      vertex 0.47292128205299377 -0.33768719434738159 4.5345649719238281
      vertex 0.58110857009887695 0 4.5345649719238281
      vertex 0.29381194710731506 0 4.8896579742431641
    endloop
  endfacet
  facet normal 0.75436947683248323 -0.24168282185432571 0.61034097522943331
    outer loop
      vertex 0.47292128205299377 -0.33768719434738159 4.5345649719238281
      vertex 0.29381194710731506 0 4.8896579742431641
      vertex 0.23911181092262268 -0.1707366406917572 4.8896579742431641
    endloop
  endfacet
  facet normal 0.3493681945562917 0.11192962297607084 0.93027610102211689
    outer loop
      vertex 0.29381194710731506 0 4.8896579742431641
      vertex 0.23911181092262268 0.1707366406917572 4.8896579742431641
      vertex 0 0 5
    endloop
  endfacet
  facet normal 0.21547998610378191 0.29900265491331018 0.92960517852661817
    outer loop
      vertex 0.23911181092262268 0.1707366406917572 4.8896579742431641
      vertex 0.086325451731681824 0.28084403276443481 4.8896579742431641
      vertex 0 0 5
    endloop
  endfacet
  facet normal 0 0.36568234947118394 0.93073971618559126
    outer loop
      vertex 0.086325451731681824 0.28084403276443481 4.8896579742431641
      vertex -0.086325451731681824 0.28084403276443481 4.8896579742431641
      vertex 0 0 5
    endloop
  endfacet
  facet normal -0.21547998610378191 0.29900265491331018 0.92960517852661817
    outer loop
      vertex -0.086325451731681824 0.28084403276443481 4.8896579742431641
      vertex -0.23911181092262268 0.1707366406917572 4.8896579742431641
      vertex 0 0 5
    endloop
  endfacet
  facet normal -0.3493681945562917 0.11192962297607084 0.93027610102211689
    outer loop
      vertex -0.23911181092262268 0.1707366406917572 4.8896579742431641
      vertex -0.29381194710731506 0 4.8896579742431641
      vertex 0 0 5
    endloop
  endfacet
  facet normal -0.3493681945562917 -0.11192962297607084 0.93027610102211689
    outer loop
      vertex -0.29381194710731506 0 4.8896579742431641
      vertex -0.23911181092262268 -0.1707366406917572 4.8896579742431641
      vertex 0 0 5
    endloop
  endfacet
  facet normal -0.21547998610378191 -0.29900265491331018 0.92960517852661817
    outer loop
      vertex -0.23911181092262268 -0.1707366406917572 4.8896579742431641
      vertex -0.086325451731681824 -0.28084403276443481 4.8896579742431641
      vertex 0 0 5
    endloop
  endfacet
  facet normal 0 -0.36568234947118394 0.93073971618559126
    outer loop
      vertex -0.086325451731681824 -0.28084403276443481 4.8896579742431641
      vertex 0.086325451731681824 -0.28084403276443481 4.8896579742431641
      vertex 0 0 5
    endloop
  endfacet
  facet normal 0.21547998610378191 -0.29900265491331018 0.92960517852661817
    outer loop
      vertex 0.086325451731681824 -0.28084403276443481 4.8896579742431641
      vertex 0.23911181092262268 -0.1707366406917572 4.8896579742431641
      vertex 0 0 5
    endloop
  endfacet
  facet normal 0.3493681945562917 -0.11192962297607084 0.93027610102211689
    outer loop
      vertex 0.23911181092262268 -0.1707366406917572 4.8896579742431641
      vertex 0.29381194710731506 0 4.8896579742431641
      vertex 0 0 5
    endloop
  endfacet
endsolid OBJECT
